<?xml version="1.0" encoding="utf-8"?>
<!-- Generator: Adobe Illustrator 24.3.0, SVG Export Plug-In . SVG Version: 6.00 Build 0)  -->
<svg version="1.1" id="Layer_1" xmlns="http://www.w3.org/2000/svg" xmlns:xlink="http://www.w3.org/1999/xlink" x="0px" y="0px"
	 viewBox="0 0 65.7 72.4" style="enable-background:new 0 0 65.7 72.4;" xml:space="preserve">
<style type="text/css">
	.st0{fill:#91BED5;}
</style>
<g id="Layer_2_1_">
	<g id="Paws">
		<g id="paths">
			<path class="st0" d="M15.2,34.9c0,0.1,0,0.3,0,0.4v0.1c0,0.2,0,0.4,0,0.5c0,0.3-0.1,0.6-0.3,0.8c-0.2,0.5-0.5,1-1,1.3
				c0,0.2,0,0.3,0,0.5c-0.1,0.9-0.6,1.6-1.4,2c-0.1,0.1-0.2,0.1-0.3,0.1c0,0.3-0.1,0.6-0.2,0.9c0,0.2,0.1,0.4,0.1,0.6
				c0,0.9-0.6,1.8-1.4,2.2c-0.4,0.2-0.9,0.3-1.4,0.3l-0.2,0.1c-0.2,0.3-0.5,0.6-0.8,0.8c-0.5,0.3-1,0.4-1.6,0.2
				c-0.2,0-0.5,0-0.7-0.1l-0.2-0.1l-0.2-0.1c-0.2,0-0.3-0.1-0.5-0.1c-0.1,0-0.3-0.1-0.4-0.2l-0.3-0.2c-0.2,0.1-0.4,0-0.6-0.2
				c-0.3-0.2-0.6-0.4-0.8-0.8c-0.1-0.2-0.2-0.5-0.2-0.7c-0.1-0.2-0.2-0.3-0.3-0.5c-0.1-0.1-0.2-0.2-0.2-0.2c-1-0.9-2-1.9-2-3.2
				c-0.1-0.2-0.1-0.5-0.2-0.7C0.1,38.4,0,38.2,0,38c0-0.2,0-0.5,0-0.7v-0.1c0-0.3-0.1-0.6,0-0.9c0-0.1,0-0.2,0-0.2
				c0-0.2,0-0.5,0-0.7c0.1-0.7,0.6-1.4,1.2-1.8c0.1-0.1,0.3-0.1,0.5-0.2c0.2-0.6,0.7-1.2,1.3-1.5c0.3-0.2,0.6-0.3,1-0.3
				c0.1-0.2,0.2-0.4,0.3-0.6c-0.7-0.5-1.1-1.4-1.1-2.2c0-0.9,0.6-1.8,1.4-2.2c0.5-0.3,1-0.3,1.5-0.2C6.3,26.1,6.6,26,6.9,26
				c0.1-0.1,0.3-0.2,0.4-0.3c0.5-0.3,1.1-0.4,1.6-0.2l0.3,0.1c0.3,0,0.5,0,0.8,0.1c0.1,0,0.2,0,0.2,0.1c0.1,0,0.2,0.1,0.3,0.1
				c0.3,0.1,0.5,0.3,0.8,0.5c0.4,0.2,0.8,0.5,1,0.9c0.2,0.3,0.2,0.6,0.3,0.9l0.1,0.1l0.3,0.3c0.9,0.8,1.9,1.7,1.8,3
				c0.1,0.3,0.2,0.6,0.2,1c0,0.2,0.1,0.4,0.1,0.6c0,0.2,0,0.4,0,0.7c0,0.1-0.1,0.2-0.1,0.3C15.1,34.3,15.2,34.6,15.2,34.9z"/>
			<path class="st0" d="M27.1,12.7c0,0.2,0,0.4-0.1,0.6v0.2c0,0.4-0.2,0.7-0.4,1c0.1,0.3,0.1,0.6,0,0.9c-0.1,0.8-0.6,1.4-1.2,1.8
				l0,0c-0.1,0.1-0.3,0.2-0.4,0.3l-0.3,0.1c-0.2,0.6-0.7,1.2-1.2,1.5c-0.3,0.2-0.5,0.2-0.8,0.3c0,0.1,0,0.1-0.1,0.2
				c0,0.1,0,0.2,0,0.3c0,1-0.6,1.8-1.4,2.2c-0.4,0.2-0.9,0.3-1.3,0.3c-0.2,0.2-0.4,0.4-0.7,0.6c-0.4,0.2-0.9,0.3-1.3,0.3
				c-0.1,0-0.2,0-0.4,0c-0.2,0-0.4,0-0.7-0.1h-0.2c-0.1,0-0.2,0-0.3-0.1L16.1,23l-0.3,0l-0.3-0.1h-0.1l-0.3-0.1
				c-0.1,0-0.2-0.1-0.4-0.2s-0.4-0.2-0.6-0.4c-0.4-0.2-0.7-0.5-0.9-0.8c-0.1-0.2-0.2-0.5-0.3-0.8l-0.2-0.1c-0.8-0.7-1.8-1.6-1.8-2.9
				c-0.1-0.2-0.1-0.5-0.1-0.7s0-0.4,0-0.5s0-0.2,0-0.3c0-0.3,0-0.5,0-0.8l0,0c0-0.2,0-0.4,0-0.5s0-0.1,0-0.2c0-0.2,0-0.4,0-0.6
				c0-0.1,0-0.1,0.1-0.2c0-0.2,0-0.3,0-0.5l0,0c0-0.1,0-0.1,0-0.2c0.1-0.7,0.6-1.4,1.2-1.7c0.3-0.2,0.7-0.3,1-0.3
				c0.2-0.2,0.4-0.4,0.7-0.5c0.3-0.2,0.6-0.3,1-0.3c0-0.2,0.1-0.5,0.2-0.7C14.4,8.9,13.9,8,13.9,7c0-0.9,0.6-1.8,1.4-2.2
				c0.4-0.2,0.9-0.3,1.3-0.3l0.1-0.1c0.6-0.3,1.2-0.4,1.8-0.2h0.1c0.2,0,0.4-0.1,0.6-0.2c0.6-0.3,1.2-0.4,1.8-0.2
				c0.2,0.1,0.4,0.2,0.6,0.3l0.3,0.1c0.3,0.1,0.6,0.3,0.9,0.5c0.4,0.1,0.7,0.3,1,0.6c0.2,0.2,0.4,0.4,0.5,0.6s0.2,0.3,0.2,0.5
				C24.6,6.7,24.8,7,25,7.3v0.1c0.9,0.8,1.9,1.7,1.9,2.9C27,10.6,27,11,27,11.4l0,0c0.1,0.3,0.1,0.5,0.1,0.8c0,0.1,0.1,0.3,0.1,0.4
				C27.1,12.6,27.1,12.7,27.1,12.7z"/>
			<path class="st0" d="M46.8,7.7c0,0.2,0,0.3-0.1,0.5c0,0.1,0,0.2,0,0.3s-0.1,0.3-0.1,0.4c0.2,0.4,0.2,0.9,0.1,1.4v0.1
				c0,0.2,0,0.3,0,0.5c-0.1,0.4-0.2,0.7-0.4,1c-0.2,0.5-0.6,0.9-1,1.1c0,0.1,0,0.1,0,0.2c-0.1,0.9-0.6,1.6-1.4,2.1
				c-0.2,0.1-0.4,0.2-0.6,0.2c0,0.2-0.1,0.3-0.2,0.5c0,0.1,0,0.2,0,0.3c0,1-0.6,1.8-1.4,2.2c-0.5,0.3-1,0.4-1.5,0.3
				c-0.2,0.2-0.4,0.3-0.6,0.5c-0.4,0.3-0.9,0.3-1.4,0.3c-0.2,0-0.3,0-0.5-0.1c-0.2,0-0.4,0-0.6-0.1H37c-0.1,0-0.2,0-0.3-0.1h-0.1
				c-0.1,0-0.2-0.1-0.3-0.1h-0.1c-0.1,0-0.3-0.1-0.4-0.2l0,0c-0.2-0.1-0.3-0.1-0.5-0.2l-0.2-0.1c-0.3-0.1-0.5-0.3-0.7-0.5
				c-0.6-0.3-1-0.9-1.1-1.6l0,0l-0.2-0.1c-0.9-0.8-1.9-1.6-1.8-3c-0.1-0.2-0.1-0.5-0.1-0.7s0-0.3,0-0.5c0-0.1,0-0.2,0-0.3
				c0-0.2,0-0.5,0-0.7v-0.1c0-0.2,0-0.3,0-0.5c0-0.1,0-0.1,0-0.2c0-0.2,0-0.3,0-0.5c0-0.1,0-0.2,0.1-0.3c0-0.1,0-0.2,0-0.3V9.3l0,0
				c0.1-0.7,0.6-1.4,1.2-1.7c0.4-0.2,0.8-0.3,1.2-0.3C33.9,7.2,34,7,34.2,6.9c0.3-0.2,0.7-0.3,1.1-0.3c0-0.2,0.1-0.4,0.2-0.6
				c-0.7-0.5-1.2-1.4-1.2-2.3c0-1,0.5-1.9,1.4-2.3c0.4-0.2,0.8-0.3,1.3-0.3h0.1C37.6,1,37.7,1,37.9,0.9c0.2-0.2,0.4-0.4,0.7-0.6
				C39.1,0,39.8,0,40.3,0.1h0.1c0.3-0.1,0.7,0,1,0.1c0.2,0.1,0.4,0.2,0.6,0.3c0.1,0,0.2,0,0.3,0.1c0.3,0.1,0.6,0.3,0.9,0.5
				c0.2,0.2,0.4,0.4,0.5,0.6c0,0.1,0.1,0.2,0.1,0.3c0.2,0.3,0.4,0.7,0.6,1.1c0.9,0.8,1.8,1.6,1.8,2.8c0.1,0.3,0.1,0.5,0.1,0.8
				c0.1,0.1,0.1,0.2,0.2,0.3C46.7,7.3,46.7,7.5,46.8,7.7z"/>
			<path class="st0" d="M65.7,23.2c0,0.2,0,0.3-0.1,0.5c0,0.2,0,0.4,0,0.6c0,0.1,0,0.2-0.1,0.3c0.1,0.4,0.2,0.8,0.1,1.2V26
				c0,0.2,0,0.3,0,0.5c-0.1,0.4-0.2,0.7-0.4,1c-0.2,0.5-0.6,0.9-1,1.1c0,0.1,0,0.1,0,0.2c-0.1,0.9-0.6,1.6-1.4,2
				c-0.2,0.1-0.3,0.2-0.5,0.2c0,0.2-0.1,0.4-0.2,0.5c0,0.1,0,0.2,0,0.4c0,1-0.6,1.8-1.4,2.2c-0.4,0.3-1,0.4-1.5,0.3
				c-0.2,0.2-0.4,0.4-0.7,0.6c-0.5,0.3-1.1,0.4-1.6,0.2c-0.2,0-0.5,0-0.7-0.1l0,0H56L55.8,35l-0.3-0.1L55.3,35
				c-0.1,0-0.3-0.1-0.4-0.2l0,0c-0.1,0-0.2-0.1-0.4-0.2c-0.1,0-0.2-0.1-0.4-0.2c-0.2-0.1-0.4-0.3-0.6-0.4c-0.3-0.2-0.6-0.4-0.8-0.8
				c-0.1-0.2-0.2-0.5-0.3-0.8c0,0,0-0.1-0.1-0.1l-0.2-0.2c-0.9-0.8-1.9-1.6-1.8-3c-0.1-0.2-0.1-0.5-0.1-0.7s0-0.3,0-0.5
				c0-0.1,0-0.2,0-0.3c0-0.3,0-0.5,0-0.8l0,0c0-0.2,0-0.4,0-0.5c0,0,0-0.1,0-0.2c0-0.2,0-0.4,0-0.5s0-0.2,0-0.3c0-0.1,0-0.3,0-0.4
				c0.1-0.7,0.6-1.4,1.2-1.8c0.3-0.2,0.6-0.3,1-0.3c0.2-0.2,0.5-0.4,0.8-0.6s0.7-0.3,1.1-0.3c0-0.2,0.1-0.4,0.2-0.6
				c-0.7-0.5-1.1-1.4-1.1-2.3s0.6-1.8,1.4-2.2c0.4-0.2,0.9-0.3,1.4-0.3l0,0c0.2-0.1,0.5-0.2,0.7-0.3c0.2-0.2,0.4-0.3,0.6-0.5
				c0.5-0.3,1.1-0.4,1.7-0.2l0.1,0.1c0.3,0,0.6,0,0.9,0.1l0,0h0.2c0.3,0.1,0.5,0.2,0.7,0.4c0.1,0,0.2,0,0.3,0.1
				c1,0.3,1.5,1.2,2.1,2.5c0.9,0.6,1.5,1.5,1.7,2.6c0,0.2,0,0.4,0,0.6l0.1,0.2C65.5,22.6,65.6,22.9,65.7,23.2z"/>
			<path class="st0" d="M58,55.2c0,0.2,0,0.3,0,0.5c-0.1,0.9-0.7,1.7-1.5,2.2c0,0.1,0,0.2-0.1,0.3C56.9,59,57.1,60,57,61
				c-0.2,1-0.7,1.8-1.6,2.3c-0.3,0.6-0.7,1.1-1.3,1.4c-0.6,0.3-1.2,0.4-1.8,0.3c-0.2,0.1-0.5,0.2-0.8,0.2c-0.3,0.6-0.8,1.1-1.3,1.4
				c-0.7,0.4-1.5,0.5-2.2,0.2c-0.2-0.1-0.3-0.1-0.5-0.2l0,0c-0.7,0.4-1.5,0.5-2.3,0.2c-0.4,0.1-0.7,0.1-1.1,0.1
				c-0.5,0.2-1,0.2-1.5,0c-1-0.4-1.7-1.1-2.3-2c-1-0.6-1.9-1.4-2.4-2.5c-0.3,0.1-0.6,0.1-0.9,0c-0.2,0-0.4,0-0.5,0
				c-0.1,0.3-0.4,0.7-0.6,0.9c0,0.2,0,0.4,0,0.7c-0.1,0.6-0.3,1.2-0.8,1.6c-0.1,0.4-0.4,0.7-0.7,1V67c-0.1,0.8-0.7,1.5-1.4,1.9
				c-0.3,0.2-0.6,0.3-1,0.3c-0.2,0.1-0.4,0.1-0.5,0.1c-0.2,0.3-0.5,0.6-0.9,0.8c-0.5,0.3-1,0.4-1.5,0.2c-0.2,0.8-0.7,1.4-1.4,1.8
				c-0.6,0.3-1.2,0.4-1.9,0.2c-0.2-0.1-0.4-0.2-0.5-0.3c-0.2,0-0.4,0-0.6-0.1L24.6,72c-0.5,0.3-1.2,0.4-1.8,0.2L22.4,72h-0.1h-0.2
				c-0.1-0.1-0.3-0.1-0.4-0.2c-0.2-0.1-0.4-0.2-0.6-0.3c-0.2-0.1-0.3-0.2-0.5-0.3c-0.1-0.1-0.2-0.1-0.3-0.2
				c-0.2-0.1-0.5-0.3-0.7-0.5c-0.3-0.2-0.6-0.4-0.7-0.7c-0.1-0.2-0.2-0.5-0.3-0.8v-0.1l-0.2-0.2c-0.9-0.8-1.9-1.7-1.8-3l0,0
				c-0.1-0.2-0.1-0.4-0.1-0.6s0-0.4,0-0.6v-0.2c0-0.2,0-0.4,0-0.7v-0.1c0,0,0-0.3,0-0.4c0-0.1,0-0.1,0-0.2c0-0.2,0-0.3,0-0.5
				c0.1-0.8,0.6-1.5,1.3-1.8c0.1-0.1,0.2-0.1,0.3-0.2c0.2-0.7,0.7-1.3,1.4-1.7c0.1-0.1,0.2-0.1,0.3-0.2c-0.2-0.6-0.2-1.4,0-2
				c-1-0.9-1.5-2.1-1.5-3.4c0.1-0.6,0.3-1.1,0.7-1.6c0-0.1,0-0.2,0-0.2c0.1-0.6,0.4-1.1,0.9-1.5c0-0.2,0-0.5,0-0.7
				c0.1-0.8,0.6-1.6,1.4-2c0-0.1,0-0.2,0-0.2c0.1-0.4,0.3-0.9,0.5-1.2c0-0.1,0-0.2,0-0.3c-0.3-0.6-0.5-1.3-0.4-2
				c0.1-0.8,0.5-1.4,1.1-1.9c0.2-0.3,0.5-0.6,0.9-0.8c0.1-0.1,0.2-0.1,0.3-0.2c0-0.3,0-0.7,0-1s0.1-0.5,0.2-0.8
				c-0.1-0.4-0.1-0.9,0-1.3c0.1-0.8,0.5-1.5,1.2-2c0.1-0.4,0.3-0.9,0.6-1.2c0.2-0.8,0.7-1.6,1.5-2c0.5-0.3,1.1-0.4,1.7-0.4
				c0.2-0.4,0.5-0.7,0.9-1c0.2-0.9,0.8-1.6,1.6-2.1c0.7-0.4,1.6-0.5,2.4-0.2c0.4,0.2,0.8,0.4,1.2,0.7c0.3,0,0.5,0.1,0.8,0.1
				c0.2,0.1,0.5,0.2,0.7,0.3c0.6-0.2,1.2-0.2,1.8,0c1.1,0.4,1.9,1.2,2.5,2.2c0.7,0.4,1.3,0.9,1.7,1.5c0,0,0.1,0,0.1-0.1
				c0.6-0.3,1.3-0.4,2-0.2c0.6,0.2,1.1,0.5,1.5,1c0.3,0,0.5,0,0.8,0.1c0.5,0.2,0.9,0.4,1.2,0.8c0.2,0.1,0.5,0.3,0.7,0.5
				s0.4,0.3,0.6,0.5c0.8,0.4,1.5,1.1,1.9,2c0.1,0,0.2,0,0.3,0.1c1.2,0.4,1.8,1.6,3,4.2l0.1,0.1c1.3,1.4,2.4,2.5,2.5,3.8
				c0.1,0.4,0.2,0.9,0.1,1.3c0,0.2-0.1,0.3-0.1,0.5c0,0.3,0,0.6,0,0.9c0,0.3-0.1,0.5-0.2,0.7c0.3,0.7,0.5,1.4,0.4,2.1
				c-0.1,0.4-0.2,0.7-0.4,1C57.7,53.7,57.9,54.4,58,55.2z"/>
		</g>
	</g>
</g>
</svg>
