<?xml version="1.0" encoding="utf-8"?>
<!-- Generator: Adobe Illustrator 24.3.0, SVG Export Plug-In . SVG Version: 6.00 Build 0)  -->
<svg version="1.1" id="Layer_1" xmlns="http://www.w3.org/2000/svg" xmlns:xlink="http://www.w3.org/1999/xlink" x="0px" y="0px"
	 viewBox="0 0 61.7 78.6" style="enable-background:new 0 0 61.7 78.6;" xml:space="preserve">
<style type="text/css">
	.st0{fill:#91BED5;}
</style>
<g id="Layer_2_1_">
	<g id="Paws">
		<g id="paths">
			<path class="st0" d="M12.2,36.2c0,0.1,0.1,0.2,0.1,0.2c0.1,0.2,0.2,0.3,0.2,0.5c0,0.1,0.1,0.2,0.1,0.3c0.1,0.2,0.1,0.3,0.2,0.5
				l0,0c0.1,0.1,0.1,0.3,0.2,0.4c0,0.1,0.1,0.2,0.1,0.3s0.1,0.1,0.1,0.2c0,0.1,0,0.1,0,0.2c0,0.1,0.1,0.2,0.1,0.3v0.1l0,0
				c0,0.1,0,0.1,0.1,0.2l0,0c0.1,0.2,0.1,0.4,0.1,0.6c0,0,0,0.1,0,0.2s0.1,0.2,0.1,0.3c0.2,0.7,0,1.5-0.4,2.1
				c-0.2,0.2-0.4,0.4-0.6,0.6c0.1,0.1,0.1,0.3,0.2,0.5c0.2,0.5,0.2,1.1,0,1.6c0,0.5-0.2,1-0.4,1.5c0.1,0.1,0.2,0.3,0.2,0.4
				c0.3,0.8,0.2,1.8-0.4,2.5l0,0c0,0.5-0.1,0.9-0.3,1.3c-0.1,0.1-0.2,0.2-0.2,0.3c0,0,0,0,0,0.1c-0.1,0.2-0.3,0.4-0.5,0.5
				c-0.1,0.2-0.2,0.3-0.4,0.4c-0.2,0.1-0.3,0.3-0.5,0.3c-0.2,0.2-0.5,0.4-0.9,0.5c-0.2,0.1-0.4,0.2-0.7,0.3l-0.3,0.1L8,53.6H7.8H7.6
				c-0.1,0-0.3,0-0.4,0c-0.5,0.1-1-0.1-1.4-0.3c-0.1-0.1-0.3-0.1-0.4-0.2c-0.9-0.1-1.7-0.6-2.1-1.4C3.2,51.4,3.1,51.2,3,51
				c-0.2-0.2-0.3-0.5-0.4-0.7v-0.1c-0.2-0.2-0.3-0.5-0.4-0.7v-0.1c-0.2-0.2-0.3-0.5-0.4-0.8c0-0.1-0.1-0.2-0.1-0.3
				c-0.2-0.2-0.3-0.5-0.4-0.8l-0.1-0.3C1.1,47.1,1,46.9,1,46.8c-0.1-0.2-0.2-0.4-0.2-0.6c0-0.1-0.1-0.2-0.1-0.4
				c-0.1-0.1-0.1-0.2-0.1-0.3c0-0.2-0.1-0.3-0.1-0.5c-0.1-0.1-0.1-0.2-0.2-0.3c-0.5-0.9-0.3-2,0.3-2.7c0.1-0.1,0.1-0.2,0.2-0.2v-0.1
				c-0.3-0.3-0.6-0.7-0.7-1.1C-0.1,39.8,0,39,0.5,38.3c0.2-0.3,0.4-0.5,0.7-0.6c0-0.3,0.1-0.5,0.3-0.8v-0.1
				c-0.2-0.7-0.1-1.5,0.4-2.1c0.1-0.1,0.2-0.2,0.2-0.3c0.1-0.1,0.2-0.3,0.3-0.4c0.1-0.1,0.2-0.2,0.3-0.3l0,0l0.1-0.1
				c0.1-0.1,0.2-0.2,0.4-0.3c0.1-0.1,0.3-0.2,0.4-0.2C3.7,33,3.9,32.9,4,32.9c0.2-0.1,0.4-0.2,0.6-0.2l0.3-0.1
				c0.2-0.1,0.3-0.1,0.5-0.1l0.3-0.1H6h0.1c0.2,0,0.5,0,0.7,0h0.1h0.3c0.8,0.1,1.5,0.4,2.1,1c0.9,0.2,1.7,0.8,2.1,1.7c0,0,0,0,0,0.1
				c0.2,0.2,0.4,0.5,0.5,0.8C12,36,12.1,36.1,12.2,36.2z"/>
			<path class="st0" d="M18.4,13.5l0.1,0.3v0.1c0.1,0.2,0.1,0.3,0.2,0.5l0,0c0,0.1,0.1,0.2,0.1,0.3S19,14.9,19,15l0,0
				c0,0.1,0.1,0.2,0.1,0.3s0,0.2,0.1,0.4c0.1,0.1,0.1,0.3,0.2,0.5v0.1l0.1,0.2c0.1,0.3,0.1,0.5,0.1,0.8c0.1,0.2,0.2,0.3,0.2,0.5v0.1
				l0,0c0,0.1,0.1,0.2,0.1,0.4c0.1,0.6-0.1,1.3-0.4,1.8c-0.1,0.1-0.2,0.2-0.3,0.3c0,0.3,0,0.6-0.1,0.9c0.1,0.6,0,1.2-0.3,1.8
				c0.1,0.1,0.2,0.3,0.2,0.4c0.3,0.8,0.2,1.8-0.4,2.5l-0.1,0c0,0.4-0.2,0.8-0.4,1.1c-0.1,0.2-0.2,0.3-0.4,0.4
				c-0.2,0.2-0.4,0.4-0.6,0.5c-0.2,0.2-0.3,0.3-0.5,0.4s-0.3,0.2-0.5,0.3c-0.3,0.2-0.6,0.4-0.9,0.4c-0.2,0.1-0.4,0.2-0.6,0.2l0,0
				c-0.1,0-0.2,0.1-0.4,0.1H14h-0.3h-0.1c-0.2,0-0.4,0-0.6,0c-0.5,0-0.9-0.1-1.3-0.4c-0.1-0.1-0.2-0.2-0.3-0.3
				c-0.9-0.1-1.7-0.6-2.1-1.4l0,0C9.1,27.1,9,27,8.9,26.8c-0.2-0.2-0.3-0.5-0.4-0.7V26c-0.1-0.2-0.3-0.4-0.3-0.7v-0.1
				C8,25,7.9,24.7,7.9,24.5c0-0.1-0.1-0.2-0.1-0.4c-0.2-0.2-0.3-0.5-0.4-0.8l0,0c0-0.1,0-0.1,0-0.2c0-0.2-0.1-0.3-0.1-0.5
				c-0.1-0.2-0.2-0.3-0.2-0.5C7.1,22.2,7,22,7,21.9s-0.1-0.2-0.1-0.3c-0.1-0.2-0.1-0.4-0.1-0.6l-0.1-0.1c-0.4-0.9-0.3-2,0.3-2.7
				c0.1-0.1,0.2-0.2,0.3-0.3c-0.2-0.3-0.4-0.6-0.5-0.9c-0.3-0.8-0.1-1.7,0.4-2.3c0.2-0.2,0.3-0.4,0.6-0.6c-0.1-0.7,0-1.4,0.4-1.9
				L8.1,12v-0.1l0,0c0.2-0.2,0.3-0.4,0.6-0.6l0.1-0.1c0.1-0.2,0.3-0.3,0.5-0.5c0.2-0.1,0.3-0.3,0.5-0.4c0.1-0.1,0.3-0.2,0.4-0.3
				l0.1-0.1l0.2-0.1l0.2-0.1c0.2-0.1,0.3-0.2,0.5-0.2c0.1-0.1,0.3-0.1,0.4-0.1h0.2c0.1,0,0.2-0.1,0.4-0.1h0.1l0.3-0.1h0.2l0,0
				c0.2,0,0.3,0,0.5,0l0,0c0.3,0,0.7,0,1,0.1c0.2,0.1,0.3,0.1,0.5,0.2c0.2,0.1,0.4,0.3,0.6,0.4c0.8,0.1,1.5,0.5,1.9,1.2
				c0.1,0.1,0.2,0.3,0.3,0.4c0.1,0.2,0.3,0.4,0.3,0.6c0.1,0.1,0.1,0.2,0.2,0.3c0.1,0.2,0.2,0.4,0.3,0.6
				C18.3,13.3,18.4,13.4,18.4,13.5z"/>
			<path class="st0" d="M37.6,4.8c0,0.1,0.1,0.2,0.1,0.2c0,0.1,0.1,0.2,0.1,0.3C37.9,5.5,38,5.6,38,5.8c0.1,0.2,0.2,0.4,0.2,0.6v0.1
				c0.1,0.1,0.1,0.3,0.2,0.4V7c0,0.1,0.1,0.2,0.1,0.3l0.1,0.3c0,0.1,0.1,0.2,0.1,0.3c0.2,0.7,0.1,1.5-0.3,2.1
				c-0.3,0.3-0.6,0.6-1,0.8c0.6,0.4,1.1,1,1.3,1.7c0.1,0.4,0.2,0.9,0.1,1.4c0.1,0.6,0,1.2-0.4,1.7c0.2,0.2,0.3,0.4,0.4,0.7
				c0.3,0.8,0.2,1.7-0.3,2.4c0,0.5-0.2,1-0.5,1.4l-0.2,0.2l-0.1,0.1c-0.1,0.2-0.3,0.3-0.4,0.4l0,0c-0.1,0.2-0.3,0.3-0.5,0.5
				c-0.2,0.1-0.3,0.2-0.5,0.3c-0.3,0.3-0.6,0.4-0.9,0.5c-0.2,0.1-0.4,0.2-0.7,0.3c-0.1,0.1-0.3,0.1-0.5,0.1h-0.1h-0.2h-0.2
				c-0.2,0-0.4,0-0.6,0c-0.4,0-0.9-0.1-1.2-0.4c-0.2-0.1-0.3-0.3-0.5-0.4l0,0c-1-0.1-1.9-0.7-2.4-1.5c-0.2-0.2-0.3-0.4-0.4-0.6
				c-0.2-0.2-0.3-0.4-0.4-0.7l-0.1-0.2c-0.2-0.2-0.3-0.5-0.4-0.8l0,0c-0.2-0.3-0.3-0.5-0.4-0.8c0-0.1-0.1-0.2-0.1-0.3
				c-0.2-0.3-0.3-0.6-0.4-0.9l-0.1-0.3c0-0.1-0.1-0.3-0.1-0.4c-0.1-0.2-0.2-0.4-0.3-0.6c0-0.1,0-0.2-0.1-0.4
				c-0.1-0.1-0.1-0.2-0.2-0.3c0-0.2-0.1-0.4-0.1-0.5c-0.1-0.1-0.1-0.3-0.2-0.4c-0.4-0.9-0.3-1.9,0.3-2.6c0-0.1,0.1-0.1,0.1-0.2v-0.1
				c-0.4-0.3-0.6-0.7-0.8-1.2c-0.3-0.8-0.1-1.7,0.4-2.3c0.1-0.2,0.3-0.4,0.5-0.5c0-0.5,0.2-0.9,0.5-1.3l0.1-0.2
				c0-0.1-0.1-0.2-0.1-0.3c-0.2-0.7-0.1-1.5,0.4-2.1c0.1-0.1,0.1-0.2,0.2-0.3h0.1l0.1-0.1c0.1-0.1,0.1-0.1,0.2-0.2s0.2-0.2,0.3-0.3
				c0.1-0.2,0.3-0.3,0.4-0.4s0.2-0.2,0.4-0.2c0.1-0.1,0.2-0.1,0.3-0.2c0.1-0.1,0.2-0.1,0.4-0.2c0.2-0.1,0.4-0.2,0.6-0.2
				C30.3,0,30.4,0,30.6,0c0.1,0,0.2,0,0.3,0c0.5,0.1,0.6,0,0.7,0h0.1c0.2,0,0.4,0,0.6,0c0.4,0,0.7,0.2,1,0.4
				c0.1,0.1,0.2,0.1,0.3,0.2L34,0.9c0.8,0.1,1.6,0.6,2,1.3c0.2,0.2,0.3,0.5,0.4,0.7l0,0c0.2,0.2,0.4,0.5,0.5,0.8
				c0.2,0.2,0.3,0.4,0.4,0.7C37.4,4.5,37.5,4.6,37.6,4.8z"/>
			<path class="st0" d="M60.3,17.8c0,0.1,0.1,0.2,0.1,0.3l0,0c0.1,0.2,0.2,0.4,0.3,0.6c0,0,0,0,0,0.1c0.1,0.1,0.1,0.2,0.1,0.4v0.1
				c0,0.1,0.1,0.1,0.1,0.2v0.1c0.1,0.1,0.1,0.2,0.1,0.3c0,0,0,0.1,0,0.2s0.1,0.2,0.1,0.3c0,0.1,0.1,0.3,0.1,0.4v0.1
				c0,0.1,0,0.2,0.1,0.3l0.1,0.2c0,0,0,0,0,0.1v0.1c0,0.1,0,0.2,0.1,0.3c0.2,0.7,0.1,1.5-0.4,2.1c-0.2,0.4-0.6,0.6-1,0.8
				c0.4,0.3,0.7,0.8,0.9,1.2c0.2,0.5,0.2,1.1,0,1.6c0,0.5-0.1,1-0.4,1.5c0.1,0.2,0.2,0.3,0.3,0.5c0.3,0.8,0.2,1.8-0.3,2.5
				c0,0.5-0.2,0.9-0.5,1.3c-0.1,0.1-0.1,0.2-0.2,0.2l-0.1,0.1c-0.1,0.2-0.3,0.3-0.4,0.5l0,0c-0.1,0.1-0.2,0.3-0.4,0.4
				c-0.2,0.2-0.4,0.3-0.6,0.4c-0.2,0.2-0.5,0.4-0.8,0.5c-0.2,0.1-0.5,0.2-0.7,0.3c-0.1,0-0.2,0.1-0.3,0.1S56.4,36,56.3,36h-0.2h-0.2
				c-0.2,0-0.4,0-0.5,0c-0.4,0-0.9-0.1-1.2-0.4c-0.2-0.1-0.3-0.3-0.5-0.4h-0.1c-1-0.1-1.9-0.6-2.4-1.5c-0.2-0.2-0.3-0.4-0.4-0.6
				c-0.2-0.2-0.3-0.4-0.4-0.7c0-0.1-0.1-0.1-0.1-0.2c-0.2-0.2-0.3-0.5-0.4-0.8l0,0c-0.2-0.2-0.3-0.5-0.4-0.8c0-0.1,0-0.2-0.1-0.3
				c-0.2-0.3-0.4-0.5-0.5-0.9l-0.1-0.3c0-0.1-0.1-0.3-0.1-0.4c-0.1-0.2-0.2-0.4-0.3-0.6c0-0.1,0-0.2-0.1-0.3s-0.1-0.3-0.1-0.4
				c0-0.2-0.1-0.4-0.1-0.6c-0.1-0.1-0.1-0.2-0.2-0.3l0,0c-0.4-0.9-0.3-1.9,0.3-2.6l0.2-0.2v-0.1c-0.3-0.3-0.5-0.7-0.7-1.1
				c-0.3-0.8-0.1-1.7,0.4-2.3c0.2-0.3,0.4-0.5,0.7-0.7c0.1-0.4,0.2-0.7,0.5-1c0.1-0.1,0.2-0.2,0.3-0.3c-0.2-0.7-0.1-1.5,0.4-2.1
				c0.1-0.2,0.3-0.3,0.4-0.5h0.1l0.1-0.1l0.2-0.1c0.1-0.1,0.3-0.3,0.5-0.4c0.1-0.1,0.2-0.1,0.3-0.2c0.2-0.1,0.3-0.2,0.5-0.3l0.2-0.1
				c0.1-0.1,0.3-0.1,0.5-0.2c0.2-0.1,0.4-0.1,0.5-0.1c0.1-0.1,0.3-0.1,0.4-0.1H54l0.4-0.1h0.1c0.1,0,0.3,0,0.4,0H55
				c0.2,0,0.3,0,0.5,0h0.3c0.3,0,0.6,0.2,0.9,0.4c0.1,0.1,0.2,0.2,0.3,0.2l0.3,0.2c0.9,0.1,1.6,0.6,2.1,1.3c0.1,0.1,0.2,0.3,0.3,0.4
				c0,0.1,0.1,0.1,0.1,0.2c0.2,0.2,0.3,0.5,0.4,0.8v0.1C60.2,17.5,60.3,17.6,60.3,17.8z"/>
			<path class="st0" d="M58.9,49.5c0.1,0.2,0.1,0.3,0.2,0.5c0.1,0.3,0.1,0.7,0.1,1c0.1,0.2,0.2,0.4,0.2,0.6c0.1,0.4,0.1,0.9,0.1,1.3
				c0,0.3,0,0.5,0,0.8c0.1,0.4,0.1,0.8,0.1,1.2c0.4,0.5,0.7,1,0.9,1.7c0.3,0.9,0.1,1.9-0.5,2.7c-0.5,0.7-1.2,1.1-2,1.2h-0.2
				l-0.1,0.1c0.7,0.6,1.1,1.4,1.4,2.2c0.3,0.9,0.1,1.9-0.5,2.7c-0.2,0.3-0.5,0.5-0.8,0.7c-0.2,0.2-0.4,0.3-0.6,0.4
				c-0.4,0.3-0.8,0.5-1.2,0.5c-0.1,0.1-0.3,0.1-0.4,0.2c-0.1,0.4-0.3,0.8-0.5,1.1c-0.5,0.7-1.2,1.1-2,1.2h-0.2
				c-0.3,0.2-0.7,0.3-1.1,0.4c-0.5,0-1.1,0-1.6-0.2c-0.2,0.1-0.4,0.1-0.6,0.1c-2.4,0.3-5.7-2.3-12.9-8.6c-3.5-1.5-6-2.8-7.5-4.1
				c-4.7-2.4-7.4-4.2-7.9-6.3c-0.2-0.9-0.1-1.8,0.5-2.6l0,0c-0.1-0.8,0.1-1.7,0.5-2.4c0.3-0.4,0.7-0.8,1.2-1c0.4-0.4,1-0.7,1.6-0.8
				c0.1-0.2,0.2-0.3,0.2-0.4c0.1-0.3,0.2-0.5,0.4-0.7v-0.1c-0.2-0.4-0.4-0.7-0.5-1.2c-0.2-0.9,0-1.9,0.5-2.7c0.3-0.5,0.8-0.8,1.3-1
				c0.2-0.2,0.5-0.4,0.8-0.6l0,0c-0.2-0.9-0.1-1.8,0.5-2.6c0.2-0.2,0.4-0.5,0.6-0.6c0.1-0.1,0.1-0.2,0.2-0.3
				c0.3-0.4,0.7-0.8,1.2-0.9c0.1-0.5,0.2-0.9,0.5-1.3c0.4-0.6,1.1-1,1.9-1.1c1,0,2,0.2,2.9,0.8c0.5,0.1,0.9,0.3,1.3,0.5
				c0.2-0.1,0.4-0.1,0.6-0.1c0.9-0.1,1.8,0.2,2.5,0.7c0.9,0.3,1.7,0.8,2.4,1.5c0.3,0.1,0.5,0.1,0.7,0.3c0.3,0.1,0.6,0.2,0.9,0.3
				c0.7,0,1.4,0.4,1.8,1c0.2,0.4,0.4,0.8,0.3,1.2c0.5,0.2,1.1,0.5,1.6,0.8c2,0.7,3.4,1.5,3.8,3c0.2,0.6,0.2,1.2,0,1.7h0.1
				c1.9,1,3.2,1.9,3.8,3c0.5,0.5,1,1,1.3,1.7l0,0c0.1,0.2,0.3,0.4,0.3,0.6C57.9,48,58.5,48.7,58.9,49.5z"/>
			<path class="st0" d="M42,61.8c0.1,0.2,0.1,0.3,0.2,0.5c0.2,0.8,0.1,1.7-0.4,2.3c-0.4,0.6-1,0.9-1.7,1c-0.5,0-1,0-1.5-0.2
				c-0.2,0.2-0.5,0.4-0.7,0.6c0.1,0.5,0,1-0.2,1.5c0.2,0.8,0,1.7-0.5,2.3c-0.2,0.3-0.4,0.5-0.7,0.6c0,0.1,0,0.1,0.1,0.2
				c0.2,0.8,0.1,1.6-0.4,2.3c-0.1,0.3-0.2,0.6-0.4,0.8L35.6,74c0.1,0.7,0,1.5-0.5,2.1c-0.4,0.6-1,0.9-1.6,1l0,0
				c-0.4,0.5-0.9,0.8-1.5,0.9c-0.2,0-0.5,0-0.7,0c-0.3,0.3-0.7,0.4-1.1,0.5c-0.3,0-0.6,0-0.9-0.1c-0.1,0-0.3,0-0.4,0h-0.2
				c-0.3,0.1-0.7,0-1-0.1c-0.3,0-0.6-0.1-0.9-0.2c-0.2-0.1-0.4-0.2-0.6-0.3c-0.1-0.1-0.2-0.2-0.3-0.3L25.3,77
				c-1.1-0.3-2.3-0.7-2.8-1.8l0,0c-0.1-0.2-0.2-0.4-0.3-0.6c-0.2-0.2-0.3-0.5-0.4-0.8v-0.1c-0.1-0.2-0.2-0.4-0.3-0.6
				c0-0.1,0-0.1,0-0.2c-0.2-0.3-0.3-0.7-0.4-1.2L21,71.5c-0.2-0.6-0.2-1.2,0.1-1.8c-0.4-0.3-0.7-0.7-0.9-1.2
				c-0.3-0.8-0.2-1.8,0.4-2.5l0.1-0.2c-0.4-0.4-0.6-0.8-0.8-1.3c-0.2-0.8-0.1-1.7,0.4-2.3l0.1-0.2c-0.1-0.7,0.1-1.4,0.5-2
				c0.3-0.4,0.8-0.8,1.3-0.9c-0.2-0.2-0.4-0.5-0.5-0.8c-0.1-0.2-0.1-0.5-0.1-0.7c-0.7-0.4-1.2-1.1-1.4-1.8c-0.2-0.6-0.2-1.2,0-1.8
				c-0.1-0.8,0-1.5,0.5-2.2c0.4-0.5,0.9-0.9,1.6-1h0.2v-0.1c0.6-0.9,1.9-1.1,2.8-0.5l0,0l0.2,0.1c1.5,0.2,3.2,1.5,6.5,4.3
				c2,0.7,3.7,1.5,4.5,2.6C39.5,59.1,41.4,60.3,42,61.8z"/>
		</g>
	</g>
</g>
</svg>
