<?xml version="1.0" encoding="utf-8"?>
<!-- Generator: Adobe Illustrator 24.3.0, SVG Export Plug-In . SVG Version: 6.00 Build 0)  -->
<svg version="1.1" id="Layer_1" xmlns="http://www.w3.org/2000/svg" xmlns:xlink="http://www.w3.org/1999/xlink" x="0px" y="0px"
	 viewBox="0 0 66.2 75" style="enable-background:new 0 0 66.2 75;" xml:space="preserve">
<style type="text/css">
	.st0{fill:#91BED5;}
</style>
<g id="Layer_2_1_">
	<g id="Paws">
		<g id="paths">
			<path class="st0" d="M15.2,25c0,0.1,0,0.2,0,0.3c0,0.2,0,0.3,0,0.5c0,0.1,0,0.1,0,0.2v0.1v0.1c0,0,0,0.2,0,0.4s0,0.2,0,0.3
				c-0.1,0-0.1,0.1-0.2,0.2c0,0.1-0.1,0.3-0.1,0.4c0,0,0,0,0,0.1s-0.1,0.3-0.1,0.4l0,0c0,0.1,0,0.2,0,0.2l-0.1,0.2
				c0,0.2-0.1,0.4-0.2,0.6c0,0.1-0.1,0.3-0.1,0.4c-0.2,0.7-0.6,1.3-1.3,1.6c-0.3,0.2-0.7,0.3-1.1,0.3l0,0c-0.1,0.7-0.4,1.3-1,1.7
				c-0.2,0.3-0.5,0.6-0.9,0.8c0,0.2,0,0.4,0,0.6c-0.1,0.7-0.6,1.4-1.2,1.7c-0.3,0.2-0.5,0.2-0.8,0.3c-0.1,0.1-0.3,0.3-0.5,0.4
				C7.5,36.9,7.3,37,7.1,37c-0.2,0.1-0.5,0.2-0.7,0.2c-0.2,0.1-0.4,0.1-0.7,0.2c-0.2,0-0.4,0-0.6,0c-0.3,0.1-0.6,0.1-0.9,0
				c-0.2,0-0.4,0-0.6,0c-0.2,0-0.5-0.1-0.7-0.2c-0.2,0-0.4-0.1-0.6-0.2c-0.5-0.1-0.9-0.5-1.2-0.9c-0.6-0.4-1-1-1-1.7
				c0-0.1,0-0.2,0-0.2c0-0.2,0-0.3,0-0.5c0-0.1,0-0.1,0-0.2c0-0.2,0-0.4,0-0.5v-0.1v-0.1v-0.1c0-0.2,0-0.3,0-0.5c0-0.1,0-0.2,0-0.3
				c0-0.2,0-0.4,0-0.6s0.1-0.3,0.1-0.5s0-0.5,0-0.7V30v-0.1c0-0.2,0.1-0.4,0.2-0.6c0-0.1,0-0.3,0-0.4c0-0.2,0.1-0.3,0.1-0.5
				c0,0,0-0.1,0-0.2c0-0.2,0.1-0.4,0.2-0.6c-0.1-0.6,0-1.2,0.4-1.6c0.2-0.6,0.6-1.1,1.1-1.4l0,0c0-0.3,0-0.5,0-0.8
				c0.1-0.8,0.6-1.6,1.3-2c0.2-0.1,0.5-0.2,0.8-0.3c0.2-0.2,0.3-0.5,0.6-0.6c0-0.1,0-0.2,0-0.2c0.1-0.8,0.6-1.4,1.3-1.8l0,0l0.2-0.1
				c0.1-0.1,0.3-0.1,0.4-0.2l0,0c0.1-0.1,0.2-0.1,0.4-0.2l0.2-0.1h0.1c0.1,0,0.1,0,0.2-0.1c0.2-0.1,0.4-0.1,0.5-0.1
				c0.1,0,0.3-0.1,0.4-0.1c0.2,0,0.3-0.1,0.5,0c0.1,0,0.3,0,0.4,0c0.1,0,0.3,0,0.4,0c0.2,0,0.4,0,0.6,0.1l0,0c0.1,0,0.3,0,0.4,0.1
				l0.3,0.1l0.3,0.1h0.1c0.2,0.1,0.3,0.1,0.4,0.2c0.4,0.2,0.8,0.5,1,0.9c0.1,0.2,0.2,0.4,0.2,0.7l0,0c0.9,0.5,1.5,1.4,1.6,2.4
				c0.1,0.4,0.1,0.8,0.1,1.2l0,0c0.1,0.3,0.1,0.6,0.1,0.9C15.1,24.7,15.1,24.9,15.2,25z"/>
			<path class="st0" d="M31.4,6.6c0,0.1,0,0.2,0,0.3c0,0.2,0,0.3,0,0.5c0,0,0,0,0,0.1s0,0.2,0,0.2c0,0.2,0,0.3,0,0.5v0.1
				c0,0.1,0,0.2,0,0.4c0,0.1,0,0.2-0.1,0.3c0,0.1,0,0.2,0,0.3s0,0.1,0,0.2c0,0.1,0,0.2,0,0.3s0,0.1,0,0.2v0.1c0,0.1,0,0.1,0,0.2
				c0,0.2-0.1,0.3-0.1,0.5V11c0,0.1,0,0.1,0,0.2v0.1c-0.1,0.7-0.6,1.4-1.2,1.8c-0.2,0.1-0.5,0.2-0.7,0.3c0,0.2,0,0.5,0,0.7
				c-0.1,0.5-0.3,1-0.6,1.4c-0.2,0.5-0.6,0.9-1.1,1.2c0,0.1,0,0.2,0,0.4c-0.1,1-0.7,1.8-1.7,2.2l-0.2,0.1c-0.2,0.3-0.5,0.5-0.8,0.7
				c-0.2,0.1-0.4,0.2-0.7,0.2c-0.2,0.1-0.5,0.2-0.8,0.2c-0.2,0.1-0.5,0.1-0.7,0.1s-0.4,0-0.6,0c-0.3,0.1-0.7,0-1,0l0,0
				c-0.2,0-0.4,0-0.5-0.1h-0.2c-0.1,0-0.2,0-0.3-0.1l0,0c-0.1,0-0.3-0.1-0.4-0.2l0,0c-0.2-0.1-0.4-0.2-0.6-0.3
				c-0.4-0.2-0.7-0.5-0.9-0.8c-0.1-0.1-0.1-0.3-0.2-0.4c-0.8-0.5-1.3-1.3-1.3-2.2c0-0.2,0-0.5,0-0.7l0,0c0-0.2,0-0.4,0-0.7l0,0
				c0-0.1,0-0.1,0-0.1s0,0,0-0.1c0-0.2,0-0.4,0-0.5s0-0.2,0-0.2c0-0.2,0-0.4,0-0.6c0-0.2,0.1-0.3,0.1-0.5s0-0.4,0-0.6v-0.2l0,0
				c0-0.2,0.1-0.4,0.2-0.6c0-0.1,0-0.2,0-0.3c0-0.2,0.1-0.4,0.2-0.6c0,0,0,0,0-0.1c0-0.2,0.1-0.5,0.2-0.7c0-1,0.5-1.9,1.4-2.3
				c0.1-0.1,0.3-0.1,0.4-0.2c-0.1-0.3-0.1-0.7-0.1-1c0.1-0.8,0.6-1.6,1.3-2c0.3-0.2,0.6-0.4,0.9-0.4c0.1-0.2,0.3-0.4,0.5-0.5
				c0-0.1,0-0.2,0-0.3c0.1-0.7,0.5-1.3,1.1-1.7c0.1-0.1,0.2-0.2,0.3-0.2l0.1-0.1c0-0.2,0.1-0.3,0.2-0.3l0,0h0.1l0.1-0.1h0.1L24,0.7
				l0,0c0.1-0.1,0.3-0.1,0.4-0.2l0.4-0.1c0.1-0.1,0.3-0.1,0.4-0.1s0.2-0.1,0.4-0.1c0.1,0,0.2,0,0.3-0.1C26,0,26.2,0,26.5,0
				c0.2,0,0.4,0,0.6,0h0.3c0.1,0,0.3,0,0.4,0.1l0,0c0.1,0,0.3,0,0.4,0.1l0,0c0.1,0,0.2,0.1,0.3,0.1c0.5,0.1,0.9,0.5,1.2,0.9
				c0.1,0.1,0.1,0.2,0.1,0.3c0.7,0.4,1.2,1.2,1.2,2c0.1,0.2,0.1,0.4,0.1,0.6c0,0.1,0,0.2,0,0.2l0,0c0.1,0.3,0.1,0.6,0.1,0.9v0.1
				c0,0.3,0,0.6,0,0.8l0,0C31.4,6.3,31.4,6.4,31.4,6.6z"/>
			<path class="st0" d="M52.9,10.1c0,0.1,0,0.2,0,0.3l0,0c0,0.1,0,0.3,0,0.4v0.1c0,0.1,0,0.1,0,0.2v0.1c0,0.1,0,0.2,0,0.3v0.1
				c0,0.1,0,0.2,0,0.3s0,0.2-0.1,0.4c0,0.1,0,0.1,0,0.1c0,0.1,0,0.2,0,0.2c0,0.1,0,0.2,0,0.2v0.1c0,0.1,0,0.2,0,0.2l0,0
				c0,0.2-0.1,0.4-0.2,0.6v0.1c0,0.1,0,0.2-0.1,0.4c-0.1,0.3-0.2,0.6-0.3,0.9v0.2c0,0.1,0,0.2-0.1,0.3c-0.2,0.7-0.6,1.2-1.2,1.6
				c-0.2,0.1-0.4,0.2-0.6,0.2c-0.1,0.3-0.3,0.5-0.5,0.7c-0.2,0.4-0.6,0.8-1,1.1c0.1,0.3,0.1,0.6,0,0.9c-0.1,0.7-0.6,1.4-1.2,1.8
				c-0.2,0.1-0.4,0.2-0.6,0.2c-0.2,0.2-0.4,0.4-0.7,0.5c-0.2,0.1-0.3,0.2-0.5,0.2c-0.2,0.1-0.4,0.2-0.7,0.2
				c-0.2,0.1-0.4,0.2-0.6,0.2c-0.2,0-0.4,0-0.6,0c-0.3,0.1-0.6,0.1-0.9,0c-0.2,0-0.5,0-0.7,0c-0.1,0-0.3,0-0.4-0.1h-0.1h-0.1
				c-0.2,0-0.4-0.1-0.7-0.2c-0.5-0.1-0.9-0.5-1.2-0.9l-0.1-0.1c-0.6-0.4-1.1-1.1-1.1-1.8V20c0-0.2,0-0.4,0-0.6v-0.1
				c0-0.2,0-0.4,0-0.7c0,0,0,0,0-0.1v-0.1l0,0c0-0.2,0-0.4,0-0.6v-0.2c0-0.2,0-0.5,0-0.7c0-0.1,0.1-0.3,0.1-0.4c0-0.3,0-0.5,0-0.8
				l0,0c0-0.1,0-0.1,0-0.2c0-0.2,0.1-0.3,0.1-0.5s0-0.3,0-0.5c0-0.1,0.1-0.3,0.1-0.4c0-0.1,0-0.2,0-0.3c0-0.2,0.1-0.4,0.2-0.6v-0.1
				c-0.2-0.5-0.2-1.1,0.1-1.6c0.2-0.6,0.6-1.1,1.2-1.5l0,0c-0.1-0.3-0.1-0.5,0-0.8c0.1-0.8,0.6-1.6,1.3-2C41.9,7.1,42,7,42.2,7v0.3
				c0.1-0.7,0.5-1.3,1.1-1.7c0.1-0.1,0.2-0.1,0.3-0.2s0.2-0.1,0.4-0.2c0.1-0.1,0.3-0.2,0.5-0.3c0.1-0.1,0.2-0.1,0.3-0.1
				c0.1-0.1,0.3-0.1,0.5-0.2c0.1-0.1,0.3-0.1,0.5-0.2h0.1H46c0.1,0,0.2-0.1,0.4-0.1c0.1,0,0.3-0.1,0.4-0.1c0.2,0,0.4-0.1,0.5-0.1
				s0.3,0,0.5,0c0.1,0,0.3,0,0.4,0c0.1,0,0.3,0,0.4,0c0.2,0,0.3,0,0.5,0.1h0.1c0.1,0,0.2,0,0.3,0.1c0.1,0,0.3,0.1,0.4,0.2
				c0.1,0,0.2,0,0.3,0.1c0.1,0,0.2,0.1,0.3,0.1l0.2,0.1c0.4,0.2,0.7,0.5,0.9,0.8c0.1,0.1,0.1,0.3,0.2,0.4C52.5,6.4,53,7.2,53,8
				c0,0.2,0,0.4,0,0.6c0,0.1,0,0.1,0,0.2c0,0.3,0,0.5,0,0.8l0,0C52.9,9.8,52.9,10,52.9,10.1z"/>
			<path class="st0" d="M66.2,31.4c0,0.1,0,0.2,0,0.3c0,0,0,0,0,0.1l0,0v0.1c0,0.2,0,0.5,0,0.7v0.1c0,0,0,0,0,0.1c0,0.2,0,0.4,0,0.6
				l-0.1,0.3c0,0.1,0,0.3,0,0.4c0,0.1,0,0.2-0.1,0.3c0,0.1,0,0.2,0,0.2c0,0.1,0,0.2,0,0.3V35c0,0.1-0.1,0.3-0.1,0.4
				c0,0.1,0,0.1,0,0.2l0,0c0,0.1-0.1,0.3-0.1,0.4c0,0.2-0.1,0.4-0.2,0.6c0,0.1-0.1,0.2-0.1,0.3s0,0.2-0.1,0.3c0,0.1,0,0.1-0.1,0.2
				c-0.2,0.7-0.8,1.2-1.4,1.5c-0.4,0.3-1,0.3-1.5,0.2c0.1,0.3,0.1,0.6,0.1,0.9c-0.1,0.6-0.4,1.2-0.8,1.6c-0.2,0.4-0.5,0.7-0.9,0.9
				c0,0.3,0,0.6,0,0.9c-0.1,0.7-0.6,1.4-1.2,1.8c-0.2,0.1-0.3,0.2-0.5,0.2c-0.2,0.2-0.4,0.4-0.7,0.6c-0.1,0.1-0.2,0.1-0.3,0.2
				L58,46.4c-0.2,0.1-0.4,0.2-0.6,0.2l0,0c-0.2,0.1-0.3,0.2-0.5,0.2c-0.2,0.1-0.4,0.1-0.6,0.1c-0.3,0.1-0.6,0.2-0.9,0.2
				c-0.2,0-0.5,0-0.7,0h-0.3c-0.1,0-0.3,0-0.4-0.1l0,0c-0.1,0-0.2,0-0.3-0.1l-0.3-0.1c-0.5-0.1-0.9-0.5-1.2-0.9
				c0-0.1-0.1-0.2-0.1-0.3c-0.7-0.4-1.2-1.2-1.2-2l0,0c-0.1-0.2-0.1-0.4-0.1-0.7c-0.1-0.3-0.1-0.5-0.1-0.8V42c0-0.3,0-0.5,0-0.8
				v-0.1c0-0.3,0-0.6,0-0.8c0-0.1,0-0.2,0.1-0.4c0-0.4,0-0.8,0-1.1c0-0.1,0.1-0.3,0.1-0.4c0-0.2,0-0.4,0-0.6c0-0.1,0-0.3,0-0.4
				c0-0.1,0-0.2,0-0.3c0-0.2,0.1-0.4,0.2-0.6v-0.1c-0.1-0.6,0.1-1.1,0.4-1.5c0.2-0.6,0.6-1.1,1.1-1.4h0.1c0-0.2,0-0.4,0-0.6
				c0.1-0.8,0.6-1.6,1.3-2c0.2-0.1,0.5-0.2,0.7-0.2c0.2-0.4,0.6-0.7,1-1l0,0c0-0.2,0-0.5,0-0.7c0.1-0.6,0.4-1.1,0.9-1.5l0.1-0.1
				l0.2-0.2l0.2-0.1c0.1-0.1,0.2-0.2,0.3-0.2l0.1-0.1l0.1-0.1l0.3-0.1c0.1-0.1,0.3-0.1,0.4-0.2C58.7,26,58.8,26,59,26l0.3-0.1
				c0.2-0.1,0.4-0.1,0.7-0.1c0.2,0,0.4,0,0.6,0c0.3,0,0.6,0,0.8,0s0.4,0,0.6,0.1l0,0l0.2,0.1c0.1,0,0.2,0,0.4,0.1h0.1
				c0.1,0,0.3,0.1,0.4,0.2c0.2,0.1,0.4,0.2,0.5,0.3c0.4,0.2,0.7,0.5,0.9,0.8c0.1,0.2,0.2,0.4,0.2,0.6c0.9,0.5,1.4,1.4,1.5,2.4l0,0
				c0,0.2,0,0.3,0,0.5S66.2,31.2,66.2,31.4z"/>
			<path class="st0" d="M49.7,52.5c0,0.2,0,0.4,0,0.5c-0.1,0.5-0.3,1.1-0.7,1.5c0.4,0.8,0.5,1.7,0.4,2.5c0,0.2-0.1,0.4-0.2,0.6
				c0,0.1,0,0.1,0,0.2c-0.2,0.9-0.7,1.7-1.5,2.2l0,0c0,0.2,0,0.3,0,0.5c0,0.1,0,0.1,0,0.2c0.2,0.6,0.2,1.2,0.2,1.8
				c-0.1,0.8-0.6,1.6-1.3,2.1c-0.2,0.4-0.6,0.8-1,1l0,0c-0.1,0.1-0.3,0.3-0.4,0.4c0.1,0.4,0.1,0.8,0,1.3c-0.2,0.9-0.7,1.8-1.6,2.2
				c-0.7,0.4-1.5,0.5-2.3,0.2c-0.3-0.1-0.5-0.2-0.7-0.4h-0.1c0.1,0.6,0.2,1.1,0.1,1.7c-0.2,0.9-0.7,1.7-1.5,2.2
				c-0.3,0.2-0.6,0.3-1,0.3c-0.2,0.1-0.4,0.1-0.6,0.1c-0.4,0.1-0.8,0.1-1.2,0c-0.2,0-0.3,0-0.5,0c-0.3,0.4-0.6,0.7-1,0.9
				c-0.7,0.4-1.5,0.5-2.3,0.2c-0.4-0.1-0.8-0.4-1.2-0.7c-0.2,0-0.3-0.1-0.5-0.1c-0.9-0.3-1.6-1-2.1-1.7l-0.4-0.1
				c-2.1-0.7-3.8-3.9-7-11.3c-2.3-2.5-3.8-4.4-4.3-6c-3.1-3.8-4.7-6.4-4.3-8.5c0.1-0.8,0.6-1.5,1.3-2l0,0c0.2-0.9,0.7-1.8,1.6-2.2
				c0.4-0.2,0.8-0.3,1.2-0.4c0.5-0.2,1.1-0.3,1.7-0.2c0.1-0.1,0.2-0.2,0.3-0.3c0.2-0.3,0.5-0.5,0.9-0.7c-0.1-0.5-0.2-1.1-0.1-1.6
				c0.2-1,0.7-1.8,1.6-2.3c0.4-0.2,0.9-0.4,1.3-0.4c0.3-0.1,0.7-0.2,1-0.2c0-0.1,0-0.2,0-0.3c0.2-0.9,0.7-1.7,1.5-2.2
				c0.2-0.1,0.4-0.2,0.6-0.3s0.3-0.2,0.5-0.3c0.4-0.2,0.9-0.4,1.3-0.4c0.3-0.4,0.6-0.8,1.1-1c0.4-0.3,1-0.4,1.5-0.4
				c0.2-0.7,0.7-1.3,1.4-1.6c0.1-0.1,0.2-0.1,0.4-0.2l0.2-0.1c0.6-0.3,1.3-0.4,2-0.3c0.3,0,0.7,0,1,0.1c0.6,0.2,1.2,0.6,1.6,1.1
				c0.5-0.2,1.1-0.2,1.6,0c0.6,0.2,1.2,0.7,1.6,1.2c0.5,0.5,0.8,1,1.1,1.6c0.2,0.2,0.3,0.4,0.5,0.7c0.9-0.3,1.8,0.2,2.1,1
				c0.2,0.3,0.3,0.7,0.3,1.2c0,0.2,0,0.4,0,0.7l0.3,0.6c0.4,0.3,0.6,0.6,0.8,1.1c0.4,0.4,0.7,0.8,0.8,1.3c1.4,1.4,2.5,2.7,2.3,4.2
				c0,0.2-0.1,0.4-0.2,0.6c0,0.2,0,0.4,0,0.6c0.6,0.9,0.9,1.9,0.8,3c0.5,0.8,0.8,1.7,0.9,2.7C49.5,51.2,49.6,51.8,49.7,52.5z"/>
			<path class="st0" d="M25.8,64.3c0,0.2,0,0.3,0,0.5c-0.1,0.8-0.7,1.6-1.4,2l-0.2,0.1c-0.3,0.4-0.7,0.8-1.1,1
				c-0.6,0.3-1.3,0.4-1.9,0.2H21c-0.2,0.4-0.6,0.7-1,0.9c-0.4,0.2-0.8,0.3-1.3,0.3c-0.3,0.1-0.6,0.2-0.9,0.2
				c-0.2,0.3-0.5,0.5-0.8,0.7c-0.6,0.3-1.3,0.4-1.9,0.2l-0.2-0.1c-0.3,0.2-0.7,0.3-1.1,0.2c-0.4,0.1-0.8,0.1-1.2,0h-0.1
				c-0.3,0.1-0.7,0-1-0.1c-0.1,0-0.2-0.1-0.4-0.1c-0.2-0.1-0.4-0.1-0.6-0.2L10.2,70c-0.3-0.1-0.6-0.2-0.8-0.4
				c-0.3-0.1-0.6-0.4-0.8-0.6s-0.3-0.3-0.5-0.6C8,68.3,7.9,68.1,7.9,68c-0.1-0.2-0.2-0.4-0.3-0.7c-0.9-0.8-1.9-1.7-1.8-2.9
				c0-0.2,0-0.4,0-0.6c0-0.3,0-0.5,0-0.8v-0.1c0-0.2,0-0.5,0-0.7V62c0-0.2,0-0.5,0-0.7C5.9,61.1,6,61,6,60.8l0,0c0-0.3,0-0.6,0-0.8
				c0.1-0.5,0.3-1,0.7-1.4c-0.2-0.4-0.2-0.8-0.2-1.2c0.1-0.9,0.6-1.8,1.5-2.2l0.2-0.1C8,54.6,7.9,54,8,53.5c0.1-0.8,0.6-1.6,1.4-2
				l0.2-0.1c0.2-0.6,0.7-1.1,1.3-1.4c0.6-0.3,1.2-0.4,1.8-0.2c0.3,0.1,0.7,0.3,0.9,0.6c0.2,0,0.4,0,0.6,0.1c0.3-0.1,0.7-0.2,1-0.2
				c0.1,0,0.2-0.1,0.3-0.1c0.9-0.4,1.9,0,2.5,0.8c0.1,0.1,0.1,0.3,0.2,0.4c0.3,0.5,0.6,1,0.8,1.5c0.1,0.1,0.2,0.3,0.4,0.5
				c1.4,0.9,2.7,1.8,2.7,3.4l0,0c0,0.1,0,0.2,0,0.3c1,0.6,1.6,1.6,1.6,2.7c0,0.1,0,0.2,0,0.3C25,61.8,25.8,63,25.8,64.3z"/>
		</g>
	</g>
</g>
</svg>
