<?xml version="1.0" encoding="utf-8"?>
<!-- Generator: Adobe Illustrator 24.3.0, SVG Export Plug-In . SVG Version: 6.00 Build 0)  -->
<svg version="1.1" id="Layer_1" xmlns="http://www.w3.org/2000/svg" xmlns:xlink="http://www.w3.org/1999/xlink" x="0px" y="0px"
	 viewBox="0 0 62.9 75.3" style="enable-background:new 0 0 62.9 75.3;" xml:space="preserve">
<style type="text/css">
	.st0{opacity:0.3;}
	.st1{fill:#91BED5;}
</style>
<g id="Layer_2_1_" class="st0">
	<g id="Paws">
		<g id="paths">
			<path class="st1" d="M7.5,27.4c0.1,0,0.1,0.1,0.1,0.2c0.1,0.1,0.2,0.3,0.3,0.4c0,0,0.1,0,0.1,0.1c0.1,0.1,0.2,0.3,0.3,0.4
				l0.1,0.1l0,0l0.1,0.1l0,0c0.1,0.1,0.1,0.2,0.2,0.3l0.1,0.1l0.1,0.1H9c0.1,0.2,0.2,0.3,0.3,0.5l0,0l0.1,0.1
				c0.1,0.1,0.2,0.3,0.3,0.5v0.1c0.2,0.2,0.3,0.4,0.4,0.7l0,0c0.1,0.2,0.3,0.4,0.3,0.6c0.2,0.2,0.3,0.5,0.3,0.8
				c0.1,0.2,0.2,0.3,0.3,0.5s0.2,0.5,0.2,0.7c0.2,0.3,0.3,0.5,0.3,0.8c0.1,0.2,0.1,0.3,0.2,0.5c0.1,0.2,0.2,0.5,0.2,0.7
				C12,36,12,36.3,12,36.5c0.1,0.3,0.2,0.7,0.2,1c0.1,0.3,0.2,0.6,0.2,0.9v0.1c0.1,0.2,0.1,0.5,0.1,0.7s0.1,0.4,0.1,0.6
				c0,0.1,0,0.2,0,0.4c0,0.1,0,0.1,0,0.2c0,0.1,0,0.2,0,0.3v0.1c0,0.1,0,0.2,0,0.3c0,0.2,0,0.4,0,0.6c0.1,0.3,0.1,0.6,0,0.9
				c0,0.2,0,0.4,0,0.6c0,0.1,0,0.3-0.1,0.4v0.1c0,0.2,0,0.5-0.1,0.7c0,0.1,0,0.2-0.1,0.3c0,0.1,0,0.3-0.1,0.4v0.1l-0.1,0.2
				c0,0.1,0,0.1-0.1,0.2c0,0.1,0,0.2-0.1,0.2c0,0.1-0.1,0.2-0.1,0.3c0,0,0,0,0,0.1s-0.1,0.1-0.1,0.2c0,0.1-0.1,0.3-0.2,0.4l0,0
				c0,0.1-0.1,0.3-0.2,0.4c-0.1,0.2-0.1,0.3-0.2,0.5L11,47.9c-0.1,0.1-0.1,0.2-0.2,0.3c0,0-0.1,0.1-0.1,0.2l-0.2,0.3
				c-0.1,0.2-0.2,0.3-0.3,0.4l-0.1,0.2c-0.1,0.1-0.2,0.2-0.3,0.3s-0.2,0.2-0.4,0.3C9.3,50,9.3,50,9.2,50.1S9,50.2,8.9,50.3
				c-0.1,0.1-0.3,0.2-0.5,0.3c-0.3,0.2-0.6,0.3-0.9,0.4c-0.5,0.3-1.2,0.3-1.7,0c-0.3-0.2-0.5-0.4-0.7-0.6c0.1-0.2,0-0.3-0.1-0.4
				l-0.2-0.2l-0.1-0.1c-0.1-0.1-0.1-0.1-0.2-0.2l0,0l-0.2-0.2l-0.2-0.2L4,48.8l-0.1-0.2l-0.1-0.1c-0.1-0.1-0.1-0.1-0.2-0.2l-0.1-0.1
				c-0.1-0.1-0.2-0.3-0.3-0.4l-0.1-0.1C3,47.6,3,47.5,2.9,47.4l-0.1-0.1c-0.1-0.1-0.2-0.3-0.3-0.4c-0.1-0.1-0.1-0.2-0.2-0.3
				c-0.1-0.2-0.2-0.3-0.3-0.5c-0.1-0.2-0.2-0.4-0.3-0.6c-0.1-0.2-0.2-0.4-0.3-0.6c0-0.1-0.1-0.1-0.1-0.2c-0.1-0.2-0.2-0.4-0.2-0.6
				C1,43.9,1,43.8,0.9,43.6c0.1-0.2,0.1-0.3,0-0.5c-0.1-0.1-0.1-0.3-0.1-0.4c-0.1-0.2-0.1-0.5-0.1-0.8c-0.1-0.1-0.1-0.3-0.2-0.5
				s-0.1-0.5-0.1-0.7c0-0.1-0.1-0.2-0.1-0.3c-0.1-0.3-0.1-0.6-0.1-0.9c0-0.1,0-0.3,0-0.4c0-0.1,0-0.2,0-0.3c0,0,0-0.1,0-0.2
				c0-0.1,0-0.2,0-0.2c0-0.1,0-0.2,0-0.2c0-0.1,0-0.2,0-0.3c0-0.2,0-0.4,0-0.6c0-0.2,0-0.5,0-0.7c0-0.3,0-0.6,0.1-0.9l0,0
				c0-0.3,0-0.6,0.1-0.9l0,0c0-0.2,0-0.5,0.1-0.7l0,0c0-0.1,0.1-0.3,0.1-0.4v-0.1c0-0.1,0-0.2,0.1-0.3c0-0.1,0-0.1,0-0.2
				c0-0.1,0-0.2,0.1-0.3c0-0.1,0.1-0.3,0.2-0.4c0-0.1,0-0.2,0.1-0.3L1.2,32c0,0,0,0,0-0.1c0.1-0.2,0.2-0.4,0.3-0.6c0,0,0,0,0-0.1
				c0.1-0.2,0.1-0.4,0.3-0.6c0.1-0.2,0.2-0.3,0.3-0.5s0.2-0.4,0.3-0.6s0.2-0.4,0.4-0.5c0.1-0.1,0.1-0.2,0.2-0.3l0.1-0.1L3,28.3
				l0.1-0.1c0.1-0.2,0.3-0.3,0.5-0.5c0.1-0.1,0.2-0.2,0.3-0.2c0.1-0.1,0.2-0.2,0.4-0.3c0.7-0.8,2-0.9,2.8-0.2
				c0.1,0.1,0.2,0.1,0.2,0.2L7.5,27.4z"/>
			<path class="st1" d="M17.8,6.5c0.1,0.1,0.3,0.3,0.3,0.5c0.2,0.1,0.4,0.3,0.5,0.4s0.2,0.2,0.2,0.3C19,7.8,19,7.9,19.1,8
				c0.1,0.1,0.2,0.3,0.3,0.5l0,0c0.1,0.1,0.2,0.3,0.3,0.5l0,0c0,0.1,0.1,0.1,0.1,0.2c0.1,0.2,0.2,0.4,0.3,0.6
				c0.2,0.2,0.4,0.3,0.5,0.5c0.1,0.1,0.1,0.2,0.2,0.3s0.2,0.2,0.3,0.3c0.1,0.1,0.1,0.2,0.2,0.3s0.1,0.1,0.2,0.2
				c0.2,0.2,0.3,0.5,0.3,0.7c0.2,0.3,0.3,0.6,0.4,1c0.2,0.3,0.2,0.7,0.2,1.1c0.1,0.3,0.2,0.6,0.2,0.9v0.2c0,0.2,0.1,0.4,0,0.7
				c0.1,0.2,0.1,0.4,0,0.7c0,0.1,0,0.2,0,0.3c0,0.1,0,0.2,0,0.3c0,0.2,0,0.4,0,0.6s0,0.4-0.1,0.6c0,0.3,0,0.6-0.1,0.9v0.1
				c0,0.2,0,0.4-0.1,0.6c0,0.1,0,0.1,0,0.2s-0.1,0.2-0.1,0.3c0,0.2,0,0.3-0.1,0.5v0.1v0.2c0,0.1-0.1,0.2-0.1,0.3v0.1
				c0,0.1-0.1,0.2-0.1,0.3l0,0c0,0.2-0.1,0.3-0.2,0.5c0,0.1-0.1,0.3-0.2,0.4c0,0.1-0.1,0.3-0.2,0.4s-0.1,0.2-0.2,0.4
				c-0.1,0.2-0.2,0.3-0.3,0.5c-0.1,0.1-0.2,0.3-0.3,0.4c-0.1,0.1-0.1,0.2-0.2,0.3c0,0.1-0.1,0.1-0.1,0.2c-0.1,0.1-0.1,0.2-0.2,0.3
				l-0.2,0.2c-0.1,0.2-0.3,0.3-0.4,0.4L19.3,26c-0.1,0.1-0.2,0.2-0.3,0.2c-0.1,0.1-0.2,0.2-0.4,0.3c-0.1,0.1-0.2,0.2-0.4,0.3
				l-0.1,0.1H18c-0.2,0.1-0.3,0.2-0.5,0.2c-0.2,0.1-0.4,0.2-0.6,0.3c-0.6,0.3-1.2,0.3-1.8,0c-0.3-0.2-0.6-0.4-0.8-0.7l-0.1-0.1
				c-0.1-0.1-0.2-0.2-0.2-0.3l0,0c-0.1-0.1-0.2-0.2-0.2-0.3c-0.1-0.1-0.1-0.1-0.1-0.2l-0.1-0.1c-0.1-0.1-0.2-0.3-0.3-0.5l0,0
				c-0.1-0.1-0.2-0.2-0.2-0.3L13,24.8l0,0c-0.1-0.2-0.3-0.4-0.3-0.6c-0.1-0.1-0.1-0.2-0.2-0.3l-0.1-0.1c-0.1-0.1-0.2-0.3-0.2-0.4
				s-0.1-0.2-0.1-0.3c-0.1-0.2-0.2-0.3-0.2-0.5c-0.1-0.2-0.1-0.3-0.2-0.5c-0.1-0.2-0.2-0.4-0.2-0.6c0-0.1-0.1-0.1-0.1-0.2
				c-0.1-0.2-0.1-0.3-0.2-0.5c-0.1-0.2-0.1-0.3-0.1-0.5c0-0.1-0.1-0.2-0.1-0.4c0-0.1-0.1-0.3-0.1-0.4c-0.1-0.2-0.1-0.4-0.1-0.6
				c-0.1-0.1-0.1-0.3-0.2-0.4c-0.1-0.2-0.1-0.4-0.1-0.6c-0.1-0.1-0.1-0.2-0.1-0.3C10,17,10,16.7,10,16.3c0-0.2-0.1-0.3-0.1-0.5
				s0-0.5,0-0.7s0-0.3,0-0.5c0-0.1,0-0.2,0-0.3c0-0.2,0-0.4,0.1-0.6c0-0.2,0-0.5,0.1-0.7c0-0.2,0-0.5,0.1-0.7c0-0.1,0-0.1,0.1-0.2
				c0-0.2,0-0.5,0.1-0.7l0.1-0.2c0-0.1,0-0.3,0.1-0.4l0.1-0.2c0-0.1,0-0.1,0-0.2c0-0.1,0.1-0.3,0.2-0.4l0,0C11,9.8,11,9.6,11.2,9.4
				c0.1-0.3,0.3-0.6,0.5-0.8c0.1-0.2,0.2-0.4,0.4-0.6L12,7.7l0.2-0.2c0.1-0.1,0.2-0.2,0.3-0.3c0.2-0.2,0.4-0.4,0.6-0.5
				c0.2-0.2,0.5-0.3,0.9-0.4c0.5-0.4,1.2-0.5,1.8-0.4C16.5,5.7,17.2,5.9,17.8,6.5L17.8,6.5z"/>
			<path class="st1" d="M38.8,0.6c0.1,0.1,0.3,0.3,0.4,0.5c0.2,0.2,0.3,0.4,0.3,0.6c0.2,0.2,0.3,0.5,0.3,0.8C39.9,2.7,40,2.9,40,3.1
				c0.1,0.1,0.1,0.3,0.2,0.5l0.1,0.3l0.2,0.3c0.1,0.2,0.2,0.5,0.2,0.7l0,0c0.2,0.3,0.3,0.6,0.4,0.9c0.1,0.2,0.2,0.4,0.2,0.6
				c0.1,0.2,0.2,0.4,0.2,0.6c0,0.1,0.1,0.2,0.1,0.2c0.1,0.2,0.1,0.3,0.1,0.5C41.9,7.8,42,8,42,8.1c0,0.2,0.1,0.4,0.1,0.5
				c0.1,0.2,0.2,0.5,0.2,0.8c0,0.1,0,0.2,0,0.2c0.1,0.2,0.1,0.4,0.1,0.6c0.1,0.2,0.1,0.4,0.1,0.7c0,0.1,0,0.2,0,0.3s0,0.1,0,0.1
				c0,0.1,0,0.3,0,0.4v0.1v0.1c0,0.1,0,0.1,0,0.2c0,0.1,0,0.2,0,0.3c0,0.2,0,0.3,0,0.5c0,0.3,0,0.5-0.1,0.8c0,0.2,0,0.3,0,0.5
				s0,0.4-0.1,0.5v0.1c0,0.3,0,0.5-0.1,0.8l0,0c0,0.1,0,0.2-0.1,0.3c0,0,0,0,0,0.1c0,0.1,0,0.2-0.1,0.3c0,0.1,0,0.1,0,0.2v0.1
				c0,0.1,0,0.2-0.1,0.3V17c0,0.1-0.1,0.2-0.1,0.4c0,0.1-0.1,0.2-0.1,0.2c-0.1,0.2-0.1,0.3-0.2,0.5c-0.1,0.2-0.1,0.3-0.2,0.5
				c-0.1,0.1-0.1,0.3-0.2,0.4c-0.1,0.1-0.1,0.2-0.2,0.4c0,0.1-0.1,0.2-0.2,0.2l-0.1,0.1c-0.1,0.1-0.2,0.3-0.3,0.4s-0.2,0.3-0.4,0.4
				c0,0.1-0.1,0.1-0.2,0.2c-0.1,0.1-0.2,0.2-0.3,0.2c-0.1,0.1-0.2,0.2-0.4,0.3c-0.1,0.1-0.2,0.2-0.4,0.3l-0.1,0.1h-0.1
				c-0.1,0.1-0.3,0.2-0.5,0.2c-0.2,0.1-0.3,0.2-0.5,0.2c-0.6,0.3-1.2,0.3-1.8,0c-0.3-0.2-0.6-0.4-0.8-0.8L34.7,21
				c-0.1-0.1-0.1-0.1-0.2-0.2l0,0c-0.1-0.1-0.2-0.2-0.3-0.4H34v-0.1c-0.1-0.2-0.2-0.3-0.3-0.5c-0.1-0.1-0.1-0.2-0.2-0.3
				c0-0.1-0.1-0.1-0.1-0.2c-0.1-0.2-0.2-0.3-0.3-0.5c-0.1-0.1-0.2-0.3-0.2-0.4l-0.1-0.2c-0.1-0.1-0.1-0.2-0.2-0.3
				c-0.1-0.1-0.1-0.2-0.2-0.4c-0.1-0.1-0.1-0.3-0.2-0.4c-0.1-0.2-0.2-0.4-0.2-0.6c-0.1-0.2-0.2-0.3-0.2-0.5c0-0.1-0.1-0.2-0.1-0.2
				c-0.1-0.2-0.1-0.4-0.2-0.6c-0.1-0.1-0.1-0.3-0.1-0.5c-0.1-0.1-0.1-0.3-0.1-0.4c0-0.1-0.1-0.3-0.1-0.4c-0.1-0.2-0.1-0.5-0.1-0.7
				S31,12.8,31,12.6s0-0.4,0-0.6c-0.1-0.3-0.1-0.6-0.1-0.9c0-0.2,0-0.4,0-0.6c0-0.1,0-0.2,0-0.3s0-0.2,0-0.2l0,0c0-0.1,0-0.2,0-0.3
				s0-0.2,0-0.3s0-0.1,0-0.2c0-0.1,0-0.3,0.1-0.4c0-0.1,0-0.3,0-0.4c0-0.1,0-0.2,0.1-0.2c0-0.1,0-0.2,0.1-0.4c0-0.1,0.1-0.3,0.2-0.4
				c0-0.1,0-0.1,0-0.2c0.1-0.2,0.1-0.4,0.2-0.5c0-0.1,0-0.1,0-0.2s0.1-0.2,0.1-0.3c0-0.1,0.1-0.2,0.2-0.3V5.8c0-0.1,0.1-0.3,0.1-0.4
				c0,0,0,0,0-0.1s0.1-0.3,0.2-0.4l0,0c0-0.1,0.1-0.3,0.2-0.4l0,0c0.1-0.2,0.2-0.4,0.3-0.6V3.7c0-0.1,0.1-0.2,0.2-0.4l0,0
				c0-0.1,0.1-0.2,0.3-0.3c0.1-0.1,0.1-0.3,0.2-0.4c0.1-0.2,0.2-0.4,0.4-0.6c0.1-0.2,0.3-0.4,0.5-0.6s0.4-0.4,0.6-0.6
				c0.2-0.2,0.4-0.4,0.7-0.5C36,0.1,36.5,0,36.9,0.1c0.6-0.1,1.2,0,1.7,0.3C38.7,0.5,38.8,0.6,38.8,0.6z"/>
			<path class="st1" d="M58.5,15.3c0.1,0.1,0.2,0.3,0.3,0.4c0.2,0.1,0.3,0.2,0.4,0.4c0.1,0.1,0.1,0.1,0.2,0.2
				c0.1,0.1,0.1,0.1,0.2,0.2l0,0c0.1,0.1,0.1,0.2,0.2,0.3l0.1,0.1c0.1,0.1,0.2,0.3,0.3,0.5l0.2,0.2c0.1,0.2,0.2,0.3,0.3,0.5l0.1,0.1
				c0.1,0.1,0.2,0.3,0.3,0.4s0.2,0.2,0.2,0.4c0,0.1,0.1,0.2,0.1,0.3c0.1,0.2,0.2,0.4,0.2,0.6c0.1,0.2,0.2,0.4,0.3,0.7
				c0.1,0.2,0.2,0.4,0.2,0.5c0.1,0.2,0.1,0.3,0.1,0.5c0.1,0.2,0.1,0.3,0.2,0.5c0.1,0.1,0.1,0.3,0.1,0.4s0,0.2,0.1,0.3
				c0.1,0.2,0.1,0.5,0.1,0.7s0.1,0.3,0.1,0.5s0.1,0.3,0.1,0.5c0,0.1,0,0.3,0,0.5s0,0.4,0,0.6c0.1,0.4,0.1,0.8,0,1.1l-0.1,0.2
				c0.1,0.3,0.1,0.6,0.1,0.9c0,0.1,0,0.2,0,0.2c0,0.2,0,0.4-0.1,0.6c0,0.2,0,0.3-0.1,0.5c0,0.1,0,0.2-0.1,0.3c0,0.1,0,0.1,0,0.2v0.1
				c0,0.1,0,0.1,0,0.2V30c0,0,0,0.1,0,0.2l0,0c0,0.1,0,0.2-0.1,0.3c0,0.1,0,0.2-0.1,0.2c0,0.1,0,0.1,0,0.2l-0.1,0.2v0.1l-0.1,0.2
				c0,0.1,0,0.1-0.1,0.2c0,0,0,0,0,0.1S62,31.9,62,31.9l0,0c-0.1,0.2-0.1,0.3-0.2,0.5c-0.1,0.2-0.1,0.3-0.2,0.5
				c0,0.1-0.1,0.2-0.1,0.3l-0.1,0.1c0,0.1-0.1,0.2-0.1,0.2c-0.1,0.1-0.1,0.3-0.2,0.4c-0.1,0.1-0.2,0.3-0.3,0.4
				c-0.1,0.3-0.4,0.5-0.6,0.7c-0.1,0.2-0.2,0.3-0.4,0.5l-0.1,0.1c-0.1,0.2-0.3,0.3-0.5,0.4c-0.2,0.2-0.5,0.3-0.7,0.5l0,0
				c-0.6,0.6-1.4,0.8-2.1,0.5c-0.4-0.2-0.8-0.5-1-0.9L55.3,36c-0.2-0.2-0.3-0.4-0.4-0.6l-0.1-0.1c-0.1-0.1-0.2-0.2-0.3-0.4
				c-0.1-0.1-0.1-0.2-0.2-0.3c-0.2-0.2-0.3-0.4-0.3-0.7l-0.1-0.2c-0.2-0.2-0.4-0.4-0.6-0.6c-0.1-0.2-0.2-0.4-0.3-0.6
				c-0.1-0.1-0.1-0.2-0.2-0.3c0-0.1-0.1-0.2-0.1-0.2c-0.1-0.2-0.2-0.3-0.2-0.5v-0.1c-0.1-0.2-0.2-0.4-0.2-0.6
				c-0.1-0.2-0.1-0.3-0.2-0.5L52,30.1c0-0.1-0.1-0.2-0.1-0.3v-0.1c0-0.1-0.1-0.2-0.1-0.3l-0.1-0.3c-0.1-0.2-0.1-0.3-0.1-0.5l0,0
				L51.4,28v-0.1v-0.1c0-0.1,0-0.2,0-0.3c0-0.1,0-0.2-0.1-0.3c0-0.2-0.1-0.4-0.1-0.5c-0.1-0.2-0.1-0.4-0.1-0.6
				c-0.1-0.4-0.1-0.8,0-1.2c-0.1-0.3-0.2-0.7-0.2-1c0-0.1,0-0.3,0-0.5c0-0.1,0-0.3,0-0.4c0-0.2,0-0.3,0-0.5c0-0.1,0-0.3,0-0.4
				c0-0.2,0-0.4,0.1-0.5c0-0.2,0-0.4,0.1-0.6c0-0.1,0-0.3,0-0.4s0-0.1,0-0.2l0,0c0-0.1,0-0.2,0.1-0.4v-0.1c0-0.1,0-0.2,0-0.2v-0.1
				v-0.1c0-0.1,0.1-0.2,0.1-0.4V19c0.1-0.2,0.1-0.4,0.2-0.5l0,0c0-0.2,0.1-0.3,0.2-0.5c0-0.1,0.1-0.2,0.1-0.2
				c0.1-0.1,0.1-0.2,0.2-0.3c0.1-0.2,0.2-0.3,0.3-0.4c0.1-0.2,0.3-0.4,0.5-0.6c0.1-0.2,0.3-0.3,0.4-0.5c0.1-0.1,0.1-0.1,0.2-0.2
				c0,0,0-0.1,0.1-0.1c0.2-0.2,0.5-0.4,0.8-0.5c0.2-0.2,0.4-0.3,0.6-0.4c0.4-0.2,0.8-0.3,1.2-0.2c0.6-0.2,1.2,0,1.7,0.4
				c0.1,0,0.2,0,0.2,0.1l0.2,0.1L58.5,15.3z"/>
			<path class="st1" d="M42.8,30.3c0.1,0.1,0.2,0.2,0.3,0.3l0.1,0.1l0.2,0.1l0.2,0.3c0.2,0.2,0.4,0.4,0.6,0.6
				c0.4,0.6,0.6,1.4,0.3,2.2c-0.1,0.4-0.3,0.7-0.6,1c0.7,0.2,1.2,0.7,1.6,1.2c0.2,0.3,0.3,0.6,0.4,0.9c0.3,0.2,0.6,0.5,0.9,0.8
				c0.1,0.1,0.2,0.3,0.2,0.4c0.1,0.1,0.2,0.2,0.2,0.3c0.3,0.4,0.5,0.9,0.6,1.4c1.1,0.2,2.1,0.8,2.8,1.6c0.3,0.4,0.5,0.9,0.5,1.4
				c0.2,0.2,0.4,0.4,0.5,0.6c0.3,0.4,0.4,0.8,0.5,1.3c0.4,0.3,0.7,0.6,0.9,0.9c0.2,0.2,0.3,0.5,0.4,0.7c0.8,0.3,1.6,0.9,2.1,1.6
				c0.3,0.4,0.5,1,0.5,1.5v0.1c0.5,0.7,0.7,1.5,0.5,2.3c0.1,0.1,0.1,0.2,0.2,0.3c0.1,0.2,0.2,0.3,0.3,0.5l0,0
				c0.1,0.1,0.3,0.3,0.4,0.5c0.6,0.8,0.7,1.8,0.5,2.7c0,0.1-0.1,0.3-0.1,0.4c0.2,0.5,0.2,1.1,0,1.7c-0.1,0.4-0.3,0.8-0.6,1.1
				c0.1,0.4,0.1,0.8,0,1.1c0,0.3-0.1,0.5-0.1,0.8c-0.1,0.5-0.5,1-0.9,1.3c-0.1,0.1-0.2,0.3-0.4,0.4c0.2,0.6,0.2,1.2,0,1.7
				c-0.2,0.8-0.8,1.4-1.5,1.8c-0.2,0.1-0.5,0.2-0.8,0.2c-0.2,0.7-0.7,1.3-1.4,1.6L52,68.2c-0.2,0.2-0.3,0.3-0.5,0.4
				c-0.3,0.2-0.6,0.3-1,0.3c-0.4,0.2-0.9,0.2-1.4,0.1c-0.3-0.1-0.5-0.2-0.7-0.4h-0.1c-1,0.1-2.4,0.2-3.2-0.9
				c-0.2-0.1-0.4-0.2-0.6-0.3c-1.1-0.2-2.1-0.5-3.1-0.9c-2.1-0.5-4.2-1.2-6.2-2.1c-2,0-4-0.2-5.9-0.8c-1.6-0.2-3.1-0.6-4.5-1.1
				c-0.8-0.2-1.6-0.6-2.2-1.2c-0.3-0.2-0.7-0.5-0.9-0.9c-0.6-0.8-0.8-1.8-0.5-2.8c0-0.1,0-0.2,0.1-0.2c-0.1-0.1-0.1-0.2-0.2-0.3
				c-0.6-0.8-0.7-1.8-0.5-2.8c0.2-0.6,0.5-1.1,1-1.5c-0.1-0.3-0.2-0.7-0.2-1c-0.1-0.1-0.2-0.3-0.3-0.4c-0.5-0.8-0.7-1.8-0.4-2.7
				c0.1-0.2,0.1-0.3,0.2-0.5c-0.1-0.5-0.1-1,0.1-1.4c0.1-0.2,0.1-0.4,0.2-0.6c-0.1-0.1-0.2-0.2-0.3-0.3c-0.6-0.8-0.7-1.8-0.5-2.8
				c0.1-0.3,0.2-0.6,0.4-0.9c-0.1-0.5-0.1-1,0.1-1.5c0-0.1,0.1-0.3,0.1-0.4c0-0.3,0-0.6,0.1-0.9c0.2-0.8,0.8-1.4,1.5-1.7
				c0.2-0.1,0.5-0.2,0.8-0.2c-0.2-0.6-0.2-1.2,0-1.7c0.2-0.7,0.6-1.2,1.3-1.5c0.3-0.2,0.7-0.2,1-0.3l0,0c0.2-0.6,0.6-1.2,1.2-1.4
				c0.2-0.1,0.5-0.2,0.8-0.2v-0.2c0.2-0.6,0.6-1.1,1.1-1.3l0,0c0-0.1,0.1-0.1,0.1-0.2c0-0.2,0.1-0.4,0.1-0.6
				c0.1-0.5,0.4-0.9,0.8-1.2c0.1-0.1,0.2-0.3,0.4-0.4c0.2-0.4,0.6-0.8,1-1c0.2-0.1,0.4-0.2,0.6-0.2h0.1c1.2-0.6,2.5,0,5,1
				c0.1,0,0.3,0,0.4,0c0.7,0,1.3,0.1,1.9,0.2c0.6-0.1,1.2,0.1,1.7,0.5c0.3,0.1,0.6,0.3,0.8,0.6C42,29.8,42.4,30,42.8,30.3z"/>
			<path class="st1" d="M37.3,61.4c0.1,0.1,0.1,0.1,0.2,0.2c0.5,0.7,0.7,1.6,0.5,2.5c-0.2,0.6-0.6,1.1-1.2,1.4l0,0
				c-0.2,0.5-0.5,0.8-1,1.1l-0.2,0.1c-0.1,0.1-0.3,0.2-0.4,0.3c0,0-0.1,0-0.2,0c0,0.1,0,0.2-0.1,0.4c-0.2,0.6-0.6,1-1.1,1.3
				l-0.1,0.1c0.2,0.5,0.2,1,0.1,1.6c0,0.3,0,0.7-0.1,1c-0.1,0.5-0.5,0.9-0.9,1.2c-0.1,0.2-0.3,0.3-0.5,0.4c-0.1,0.1-0.3,0.2-0.4,0.3
				c-0.1,0.1-0.2,0.2-0.4,0.3c-0.1,0.1-0.2,0.2-0.3,0.2L31,73.9L30.9,74c-0.1,0-0.1,0.1-0.2,0.1c-0.1,0.1-0.2,0.1-0.3,0.2l-0.2,0.1
				c-0.1,0-0.1,0.1-0.2,0.1l0,0l0,0c-0.1,0.1-0.2,0.1-0.4,0.2h-0.1c-0.1,0.1-0.3,0.1-0.5,0.2c-0.1,0.1-0.2,0.1-0.4,0.2
				c-0.1,0-0.2,0.1-0.4,0.1c-0.2,0-0.4,0.1-0.5,0.1c-0.4,0.2-0.9,0.2-1.4,0.1l-0.2-0.1c-0.8,0.2-1.6,0-2.1-0.6
				c-0.1-0.1-0.2-0.2-0.3-0.3c-0.1-0.1-0.3-0.2-0.4-0.4l0,0c-0.1-0.1-0.2-0.2-0.2-0.2L23,73.7h-0.2l-0.1-0.1l-0.2-0.2
				c-0.1-0.1-0.1-0.2-0.2-0.3L22.2,73c0-0.1-0.1-0.1-0.1-0.2c0,0-0.1-0.1-0.1-0.2l-0.1-0.1c-0.1-0.2-0.2-0.3-0.3-0.5
				c-0.1-0.2-0.2-0.3-0.3-0.5v-0.1c-0.1-0.2-0.2-0.3-0.2-0.5C21,70.8,21,70.7,21,70.5c0.1-0.5,0-0.7,0-0.9c-0.1-0.2-0.1-0.4-0.1-0.6
				c-0.1-0.5-0.1-0.9,0-1.4c0.2-0.5,0.5-1,1-1.3l0.1-0.1c-1.2-0.5-1.8-1.9-1.3-3.1c0-0.1,0.1-0.2,0.1-0.3c0-0.4,0-0.7,0.1-1.1
				l0.1-0.2c-0.3-0.6-0.3-1.3-0.1-1.9c0.2-0.6,0.6-1.1,1.2-1.4c0.8-0.3,1.7-0.3,2.5,0c1,0.1,2,0.3,2.9,0.8c0.6-0.1,1.2,0,1.8,0.2
				h0.6c0.8-0.2,1.6,0,2.2,0.5c0.1,0.1,0.2,0.2,0.4,0.4l0.5,0.1C34.8,60.3,36.4,60.4,37.3,61.4z"/>
		</g>
	</g>
</g>
</svg>
