<?xml version="1.0" encoding="utf-8"?>
<!-- Generator: Adobe Illustrator 24.3.0, SVG Export Plug-In . SVG Version: 6.00 Build 0)  -->
<svg version="1.1" id="Layer_1" xmlns="http://www.w3.org/2000/svg" xmlns:xlink="http://www.w3.org/1999/xlink" x="0px" y="0px"
	 viewBox="0 0 63.3 77.3" style="enable-background:new 0 0 63.3 77.3;" xml:space="preserve">
<style type="text/css">
	.st0{opacity:0.3;}
	.st1{fill:#91BED5;}
</style>
<g id="Layer_2_1_" class="st0">
	<g id="Paws">
		<g id="paths">
			<path class="st1" d="M8.4,20.6c0.1,0.1,0.2,0.2,0.3,0.4c0.1,0.1,0.2,0.3,0.2,0.4c0.1,0.2,0.2,0.3,0.3,0.5s0.2,0.4,0.3,0.6
				s0.2,0.3,0.3,0.5v0.1l0.1,0.1c0.1,0.1,0.1,0.3,0.2,0.4c0.1,0.1,0.1,0.3,0.2,0.5c0,0.1,0.1,0.2,0.1,0.3c0.1,0.1,0.1,0.3,0.1,0.5
				c0,0.1,0.1,0.2,0.1,0.2l0.1,0.2c0,0.1,0.1,0.2,0.1,0.4c0.1,0.2,0.1,0.3,0.1,0.5c0,0.1,0.1,0.3,0.1,0.4l0,0c0,0.1,0,0.1,0,0.2
				s0,0.2,0,0.2c0,0.1,0,0.2,0.1,0.3c0,0.1,0,0.2,0,0.3c0,0.1,0.1,0.3,0.1,0.4s0,0.2,0,0.3c0,0.1,0,0.2,0,0.4c0,0.2,0,0.4,0,0.5
				s0,0.2,0,0.3c0,0.1,0,0.3,0,0.4s0,0.3,0,0.4s0,0.2,0,0.3c0,0.1,0,0.3,0,0.4s0,0.2,0,0.3c0,0.2,0,0.3,0,0.5s0,0.5,0,0.7
				c0,0.1,0,0.2,0,0.3s0,0.2,0,0.4s0,0.3-0.1,0.5c0,0.1,0,0.2,0,0.3s0,0.3-0.1,0.4c0,0.1,0.1,0.3,0.1,0.4c0,0.1,0,0.2-0.1,0.4
				c0,0.1,0,0.2-0.1,0.3s0,0.1,0,0.2c0,0.1,0,0.1,0,0.2c0,0.1,0,0.2-0.1,0.2c0,0.2,0,0.3-0.1,0.5l0,0c0,0.1,0,0.1-0.1,0.2l-0.1,0.3
				v0.1c0,0,0,0.1,0,0.2v0.1v0.1c0,0.1-0.1,0.2-0.1,0.3V38c0,0.1-0.1,0.2-0.1,0.3v0.1c-0.1,0.2-0.2,0.4-0.3,0.6c0,0.1,0,0.2-0.1,0.3
				c0,0.2-0.1,0.3-0.2,0.5c0,0.1-0.1,0.2-0.1,0.3s-0.1,0.2-0.1,0.2s0,0,0,0.1s-0.1,0.1-0.1,0.2c0,0.1-0.1,0.1-0.1,0.2
				c0,0.1-0.1,0.1-0.1,0.2c0,0.1-0.1,0.2-0.1,0.2c0,0.2-0.1,0.3-0.1,0.4s-0.1,0.1-0.1,0.2c0,0,0,0.1-0.1,0.1l-0.1,0.2
				c-0.1,0.1-0.2,0.2-0.2,0.3l-0.1,0.1l-0.1,0.1l0,0C8.1,42.8,8,43,7.8,43.2c-0.1,0.2-0.3,0.3-0.4,0.5l-0.2,0.2
				c-0.1,0-0.2,0.1-0.4,0.2c-0.4,0.3-0.9,0.5-1.4,0.5c-0.6,0.2-1.2,0.1-1.7-0.2c-0.3-0.2-0.6-0.5-0.7-0.9c-0.1-0.1-0.2-0.3-0.3-0.4
				c0-0.1-0.1-0.1-0.1-0.2c-0.2-0.2-0.4-0.3-0.6-0.6c-0.1-0.1-0.2-0.3-0.2-0.4v-0.1c-0.1-0.1-0.1-0.3-0.2-0.5
				c-0.1-0.1-0.1-0.2-0.2-0.3c-0.1-0.2-0.1-0.3-0.2-0.5c0-0.1,0-0.1,0-0.2c0-0.1-0.1-0.2-0.1-0.3C1,40,1,39.9,1,39.8l-0.1-0.3
				c0-0.1-0.1-0.2-0.1-0.3s0-0.2-0.1-0.2c0-0.1-0.1-0.2-0.1-0.4c0-0.1-0.1-0.2-0.1-0.3c-0.1-0.3-0.1-0.6-0.1-0.9
				c-0.1-0.3-0.2-0.5-0.2-0.8c0-0.2-0.1-0.3-0.1-0.5c0-0.1,0-0.2,0-0.4c0-0.1,0-0.2,0-0.2c0-0.2,0-0.3,0-0.5s0-0.3,0-0.5
				c0-0.1,0-0.2,0-0.3S0,33.9,0,33.7v-0.1c0-0.1,0-0.2,0-0.3s0-0.3,0-0.4c0-0.1,0-0.3,0-0.4c0-0.1,0-0.3,0-0.4c0-0.1,0-0.3,0-0.4
				s0-0.3,0-0.4s0-0.2,0-0.3c0-0.1,0-0.3,0.1-0.4c0-0.2,0-0.4,0.1-0.6c0-0.2,0-0.4,0.1-0.6c0-0.1,0-0.1,0-0.2s0-0.2,0-0.3
				c0-0.1,0.1-0.3,0.1-0.4l0,0c0-0.1,0-0.2,0.1-0.3v-0.1c0-0.1,0-0.2,0.1-0.3l0,0l0.1-0.2c0-0.1,0.1-0.1,0.1-0.2s0-0.1,0-0.2L0.9,27
				v-0.1c0-0.1,0.1-0.2,0.1-0.3v-0.1c-0.1-0.3,0-0.4,0.1-0.5c0-0.1,0.1-0.2,0.1-0.2l0,0c0-0.1,0-0.1,0.1-0.2c0-0.1,0.1-0.2,0.2-0.4
				c0-0.1,0.1-0.2,0.1-0.2l0,0v-0.1c0-0.1,0.1-0.2,0.2-0.3c0-0.2,0.1-0.4,0.2-0.6c0-0.1,0.1-0.2,0.2-0.3c0.1-0.2,0.2-0.3,0.3-0.5
				L2.6,23c0.1-0.1,0.2-0.2,0.3-0.4c0.1-0.1,0.2-0.3,0.3-0.4s0.2-0.2,0.3-0.3l0.2-0.2l0.1-0.1C3.9,21.5,4,21.4,4,21.4
				c0.2-0.2,0.4-0.4,0.6-0.5c0.1-0.1,0.3-0.3,0.5-0.4c0.1-0.1,0.3-0.2,0.5-0.3C5.9,20.1,6.2,20,6.5,20c0.6-0.2,1.2-0.1,1.7,0.2
				C8.2,20.4,8.3,20.5,8.4,20.6z"/>
			<path class="st1" d="M24.2,0.6c0.1,0.1,0.2,0.2,0.3,0.4c0,0,0.1,0.2,0.2,0.3c0.1,0.1,0.1,0.2,0.2,0.3c0,0,0.1,0.1,0.1,0.2
				c0.1,0.2,0.3,0.3,0.3,0.5c0.2,0.2,0.3,0.5,0.3,0.7l0,0c0.2,0.2,0.3,0.4,0.4,0.6c0.1,0.2,0.1,0.3,0.2,0.5c0.1,0.2,0.2,0.3,0.2,0.5
				c0.1,0.1,0.1,0.3,0.1,0.4c0.1,0.2,0.1,0.4,0.2,0.6s0.1,0.3,0.1,0.5c0,0.1,0.1,0.2,0.1,0.4S27,6.8,27,6.9c0,0.2,0.1,0.3,0.1,0.5
				c0.1,0.2,0.1,0.4,0.1,0.6c0,0.1,0,0.2,0,0.3s0,0.2,0,0.4c0,0.1,0,0.2,0,0.2c0,0.1,0,0.3,0,0.4c0,0.1,0,0.3,0,0.4s0,0.2,0,0.3
				c0,0.2,0,0.3,0,0.5c0,0.1,0,0.3,0,0.4c0,0.2,0,0.4,0,0.5c0,0.2,0,0.3,0,0.5c0,0.1,0,0.3,0,0.4c0,0.1,0,0.3,0,0.4
				c0,0.1,0,0.2,0,0.3s0,0.2,0,0.3c0,0.2,0,0.3-0.1,0.5v0.1c0,0.1,0,0.3-0.1,0.4c0,0.1,0,0.2-0.1,0.3l0,0L27,15
				c-0.1,0.2-0.1,0.4-0.2,0.5c0,0.2,0,0.4-0.1,0.6v0.1l0,0c0,0.1,0,0.2-0.1,0.2c0,0.1-0.1,0.2-0.1,0.4c0,0,0,0,0,0.1
				c0,0.2-0.1,0.3-0.2,0.5l0,0c0,0.1-0.1,0.2-0.1,0.3v0.1v0.1c-0.1,0.1-0.1,0.3-0.2,0.4c-0.1,0.2-0.1,0.3-0.2,0.5
				c-0.1,0.1-0.1,0.3-0.2,0.4s-0.2,0.3-0.2,0.4c-0.1,0.2-0.2,0.3-0.3,0.5L25,20.3l-0.2,0.2c-0.1,0.1-0.2,0.3-0.4,0.4
				c-0.1,0.2-0.3,0.4-0.5,0.6s-0.4,0.4-0.6,0.5c-0.1,0.2-0.3,0.3-0.4,0.4c-0.2,0.2-0.5,0.4-0.8,0.6c-0.1,0.1-0.3,0.2-0.4,0.3
				l-0.2,0.1C20.8,24,20,24.2,19.3,24c-0.5-0.2-0.9-0.6-1.2-1.1c-0.1-0.1-0.2-0.2-0.2-0.4c-0.1-0.1-0.2-0.3-0.2-0.4
				c-0.1-0.2-0.2-0.3-0.3-0.5l-0.1-0.1c-0.1-0.2-0.2-0.4-0.2-0.6c-0.1-0.2-0.3-0.5-0.3-0.8c-0.1-0.2-0.2-0.5-0.2-0.7
				c-0.1-0.2-0.2-0.4-0.2-0.7v-0.1c0-0.1,0-0.2-0.1-0.3c-0.1-0.2-0.1-0.4-0.1-0.6c0-0.1-0.1-0.3-0.1-0.4c0-0.2-0.1-0.4-0.1-0.5
				c0-0.2-0.1-0.3-0.1-0.5s-0.1-0.4-0.1-0.5l0,0v-0.1c0,0,0-0.2,0-0.3c0-0.2,0-0.4,0-0.6c0-0.1,0-0.3,0-0.4s0-0.1,0-0.2
				c0-0.3,0-0.5,0.1-0.8c-0.1-0.3-0.1-0.6,0-0.9c0-0.1,0-0.2,0-0.2c0-0.2,0-0.3,0.1-0.5c0-0.2,0-0.3,0-0.5c0-0.1,0-0.2,0-0.3
				s0-0.2,0-0.3c0-0.2,0-0.3,0.1-0.5c0-0.1,0-0.2,0-0.3s0-0.2,0.1-0.3c0-0.1,0-0.1,0.1-0.2c0-0.2,0-0.4,0.1-0.5c0-0.1,0-0.1,0-0.2
				V8.6c0-0.1,0-0.2,0.1-0.3l0.1-0.2c0-0.1,0-0.1,0-0.2V7.8V7.4c0,0,0-0.1,0-0.2l0,0c0-0.1,0.1-0.2,0.1-0.4V6.7L17,6.4l0,0
				c0-0.1,0.1-0.3,0.2-0.4c0-0.2,0.1-0.3,0.2-0.5c0-0.1,0.1-0.3,0.2-0.4c0-0.1,0.1-0.2,0.2-0.3c0.1-0.2,0.2-0.5,0.4-0.7
				c0.1-0.2,0.2-0.4,0.3-0.6c0-0.1,0.1-0.1,0.1-0.2C18.7,3.1,18.8,3,19,2.8c0-0.1,0.1-0.2,0.1-0.2c0.2-0.3,0.4-0.5,0.7-0.7
				c0.1-0.2,0.2-0.3,0.4-0.4c0.1-0.2,0.3-0.4,0.5-0.5c0.1-0.1,0.1-0.1,0.2-0.2H21c0.1-0.1,0.2-0.1,0.2-0.2C21.7,0,22.6-0.2,23.3,0
				C23.7,0.2,23.9,0.4,24.2,0.6z"/>
			<path class="st1" d="M45.5,2.8c0.1,0.1,0.1,0.2,0.2,0.3c0.2,0.1,0.3,0.3,0.4,0.5l0.1,0.1c0.1,0.1,0.2,0.2,0.2,0.3
				c0.1,0.1,0.2,0.3,0.2,0.4l0,0l0.1,0.1c0.1,0.2,0.2,0.4,0.3,0.6s0.2,0.3,0.3,0.5s0.1,0.3,0.2,0.5c0.1,0.2,0.2,0.3,0.2,0.5
				c0.1,0.1,0.1,0.3,0.1,0.4s0,0.1,0,0.2C47.9,7.3,48,7.4,48,7.6v0.1c0.1,0.2,0.1,0.4,0.2,0.6c0,0.1,0.1,0.3,0.1,0.4
				c0,0.1,0.1,0.3,0.1,0.4c0,0.1,0,0.2,0,0.3s0,0.2,0,0.2c0,0.1,0,0.3,0,0.4v0.4c0,0.1,0,0.3,0,0.4c0,0.1,0,0.2,0,0.2v0.1
				c0,0.1,0,0.3,0,0.4c0,0.1,0,0.3,0,0.4c0,0.2,0,0.4-0.1,0.7c0,0.2,0,0.4,0,0.6v0.1c0,0.1,0,0.2,0,0.4s0,0.3,0,0.5
				c0,0.1,0,0.1,0,0.2c0,0.1,0,0.3-0.1,0.4c0,0.1,0,0.3-0.1,0.4L48,15.6c0,0.2,0,0.4-0.1,0.5v0.1c0,0.1,0,0.1,0,0.2
				s-0.1,0.2-0.1,0.3c0,0.1,0,0.1,0,0.2l-0.1,0.2v0.1c0,0.1-0.1,0.2-0.1,0.4c0,0.1-0.1,0.2-0.1,0.3V18c0,0.1-0.1,0.2-0.1,0.3
				c-0.1,0.2-0.2,0.5-0.4,0.7c-0.1,0.2-0.2,0.5-0.3,0.7c-0.1,0.1-0.1,0.2-0.2,0.4c-0.1,0.2-0.2,0.3-0.4,0.5
				c-0.1,0.2-0.2,0.5-0.4,0.6c-0.1,0.1-0.2,0.3-0.3,0.4s-0.2,0.2-0.3,0.3c-0.1,0.1-0.2,0.2-0.3,0.3c-0.1,0.1-0.2,0.2-0.4,0.3
				c0,0.1-0.1,0.1-0.1,0.1c-0.2,0.2-0.4,0.4-0.7,0.5c-0.2,0.2-0.4,0.3-0.6,0.4l-0.2,0.1c-0.1,0.1-0.3,0.1-0.4,0.2l-0.2,0.1
				c-0.5,0.5-1.3,0.7-2,0.4c-0.4-0.2-0.8-0.5-1.1-0.9c-0.1-0.1-0.2-0.2-0.3-0.4c-0.1-0.1-0.2-0.3-0.3-0.5l-0.1-0.1
				c-0.1-0.2-0.2-0.4-0.3-0.6c-0.1-0.1-0.2-0.3-0.3-0.5s-0.2-0.3-0.2-0.5c-0.1-0.1-0.1-0.3-0.2-0.5c-0.1-0.1-0.1-0.3-0.1-0.5
				c-0.1-0.1-0.1-0.3-0.2-0.4c0,0,0,0,0-0.1S37,19,37,18.9c-0.1-0.2-0.1-0.5-0.1-0.8c-0.1-0.2-0.2-0.4-0.2-0.6c0-0.1,0-0.2,0-0.3
				c-0.1-0.3-0.1-0.6-0.1-0.8c-0.1-0.3-0.1-0.5-0.1-0.8l0,0c0-0.1,0-0.2,0-0.3s0-0.2,0-0.3c0-0.2,0-0.3,0-0.5c0-0.1,0-0.3,0-0.4
				c0-0.2,0-0.4,0-0.6c0-0.2,0-0.4,0.1-0.6c0-0.2,0-0.5,0.1-0.7c0-0.1,0-0.1,0-0.2s0-0.2,0.1-0.3c0-0.2,0.1-0.3,0.1-0.5l0,0
				c0-0.1,0-0.2,0-0.3v-0.1c0-0.1,0-0.2,0-0.2c0-0.1,0.1-0.2,0.1-0.4s0.1-0.3,0.1-0.5c0-0.1,0-0.1,0-0.2V9.4c0-0.1,0.1-0.2,0.1-0.3
				s0-0.1,0-0.2l0.1-0.2V8.6l0,0c0-0.1,0-0.1,0.1-0.2c0.1-0.1,0.2-0.3,0.3-0.4c0-0.1,0.1-0.2,0.1-0.3c0-0.1,0.1-0.2,0.1-0.3
				c0-0.1,0.1-0.2,0.2-0.3l0.1-0.2c0-0.1,0.1-0.2,0.2-0.3c0.1-0.2,0.2-0.4,0.3-0.6c0.1-0.1,0.1-0.2,0.2-0.3c0-0.1,0.1-0.1,0.1-0.2
				c0.1-0.1,0.1-0.2,0.2-0.3c0.1-0.1,0.1-0.2,0.2-0.3c0.1-0.1,0.1-0.1,0.2-0.2c0.1-0.1,0.2-0.2,0.4-0.3l0.1-0.1
				c0.2-0.3,0.4-0.5,0.6-0.6c0.2-0.2,0.4-0.4,0.7-0.5l0.2-0.1C41.8,3,42,2.8,42.2,2.8c0.2-0.1,0.4-0.2,0.5-0.3h0.1
				c0.1-0.1,0.3-0.1,0.4-0.2h0.1C43.8,2,44.5,2,45,2.3c0.1,0,0.2,0.1,0.3,0.2C45.3,2.6,45.4,2.7,45.5,2.8z"/>
			<path class="st1" d="M59.7,22.3c0.1,0.1,0.2,0.2,0.2,0.3c0.1,0.1,0.2,0.2,0.2,0.3c0.1,0.1,0.1,0.2,0.2,0.3
				c0.1,0.2,0.3,0.4,0.3,0.6c0.1,0.1,0.1,0.2,0.2,0.2c0.1,0.1,0.1,0.2,0.2,0.3c0.1,0.1,0.1,0.3,0.2,0.4c0.1,0.1,0.2,0.2,0.2,0.4
				c0.1,0.2,0.2,0.3,0.3,0.5s0.3,0.5,0.3,0.7c0.1,0.1,0.1,0.2,0.2,0.3c0.1,0.1,0.1,0.3,0.2,0.4l0.1,0.2c0.1,0.2,0.2,0.4,0.2,0.6
				c0,0.1,0.1,0.2,0.1,0.3c0.1,0.2,0.1,0.3,0.1,0.5C63,28.8,63,29,63,29.1s0.1,0.3,0.1,0.4c0.1,0.2,0.1,0.5,0.1,0.7
				c0.1,0.2,0.1,0.4,0.1,0.7c0,0.1,0,0.3,0,0.4c0,0.2,0,0.3,0,0.5c0,0.1,0,0.2,0,0.3c0,0.1,0,0.2,0,0.3c0,0.2,0,0.4-0.1,0.6
				c0,0.1,0,0.3,0,0.4c0,0.1,0,0.2-0.1,0.4c0,0.1,0,0.3-0.1,0.4c0,0.1-0.1,0.3-0.2,0.4c0,0.3,0,0.5-0.1,0.8c0,0.1,0,0.1,0,0.2
				c0,0,0,0,0,0.1s0,0.1,0,0.2c0,0.1-0.1,0.2-0.1,0.3s0,0.1,0,0.2c0,0.1-0.1,0.2-0.1,0.3v0.1c0,0.1,0,0.2-0.1,0.2l0,0v0.1
				c0,0.1-0.1,0.2-0.2,0.3c-0.1,0.2-0.1,0.4-0.2,0.5c-0.1,0.2-0.1,0.3-0.2,0.5c-0.1,0.1-0.1,0.3-0.2,0.4c-0.1,0.2-0.2,0.4-0.3,0.5
				c0,0.1-0.1,0.2-0.1,0.2l-0.1,0.2c-0.1,0.1-0.2,0.3-0.3,0.4c-0.1,0.3-0.3,0.5-0.5,0.7s-0.4,0.4-0.6,0.5c-0.1,0.2-0.3,0.3-0.4,0.4
				c-0.2,0.2-0.4,0.4-0.7,0.5c-0.2,0.2-0.5,0.4-0.8,0.5c-0.3,0.2-0.6,0.3-1,0.3c-0.6,0.2-1.2,0.1-1.7-0.2c-0.3-0.2-0.6-0.5-0.8-0.8
				c-0.2-0.2-0.4-0.5-0.5-0.8c-0.1-0.2-0.3-0.4-0.3-0.5l-0.1-0.2c-0.1-0.2-0.2-0.4-0.2-0.6c-0.2-0.2-0.3-0.5-0.3-0.8
				c-0.1-0.2-0.2-0.5-0.2-0.7c-0.1-0.2-0.2-0.4-0.2-0.6v-0.1c0-0.1-0.1-0.3-0.1-0.4c0-0.2-0.1-0.3-0.1-0.5c-0.1-0.2-0.1-0.4-0.1-0.6
				c0-0.1,0-0.3,0-0.4c-0.1-0.2-0.1-0.4-0.1-0.6c0-0.1,0-0.3,0-0.4v-0.1c0,0,0,0,0-0.1c0-0.2,0-0.3,0-0.5s0-0.3,0-0.5s0-0.3,0-0.5
				c0-0.1,0-0.1,0-0.2c0-0.2,0-0.5,0.1-0.7l0,0c-0.1-0.3-0.1-0.6,0-0.9c0-0.1,0-0.2,0-0.3c0-0.2,0-0.3,0.1-0.5c0-0.2,0-0.3,0-0.5
				c0-0.1,0-0.2,0-0.3c0-0.1,0-0.3,0.1-0.4c0-0.1,0-0.2,0.1-0.4c0-0.1,0-0.3,0.1-0.4c0-0.1,0-0.2,0.1-0.2c0-0.1,0.1-0.2,0.1-0.3
				c0-0.2,0.1-0.3,0.1-0.5v-0.1l0,0c0-0.1,0.1-0.2,0.1-0.3c0-0.1,0-0.1,0-0.2s0.1-0.2,0.1-0.4c0-0.1,0.1-0.2,0.1-0.3
				c0-0.1,0.1-0.3,0.2-0.4c0.1-0.1,0.1-0.3,0.2-0.4c0.1-0.1,0.1-0.3,0.2-0.4l0.1-0.2c0-0.1,0.1-0.1,0.2-0.2c0.1-0.2,0.2-0.4,0.4-0.6
				c0.1-0.1,0.2-0.2,0.3-0.4l0.1-0.1c0.1-0.1,0.2-0.2,0.3-0.4c0.1-0.1,0.2-0.2,0.3-0.3l0.1-0.1c0.2-0.2,0.4-0.3,0.6-0.4
				c0.2-0.2,0.4-0.3,0.7-0.4c0.2-0.1,0.4-0.2,0.6-0.3l0,0c0.5-0.4,1.3-0.5,1.9-0.3C59.4,21.9,59.6,22.1,59.7,22.3z"/>
			<path class="st1" d="M37.6,31.5c0.1,0.1,0.2,0.2,0.2,0.3l0.1,0.1c0.1,0.1,0.2,0.2,0.4,0.3c0.1,0.1,0.2,0.2,0.3,0.3l0.1,0.1
				c0.2,0.1,0.3,0.3,0.5,0.5v0.1c0.1,0.1,0.2,0.2,0.2,0.3c0.3,0.5,0.5,1.1,0.4,1.7c0.2,0.2,0.5,0.4,0.7,0.6c0.1,0.1,0.1,0.2,0.2,0.3
				l0.2,0.2c0.4,0.4,0.6,0.8,0.7,1.4c0.1,0.1,0.2,0.1,0.2,0.2c0.3,0.2,0.6,0.5,0.8,0.8s0.4,0.6,0.4,1c0.5,0.2,0.9,0.6,1.2,1
				c0.1,0.2,0.3,0.4,0.3,0.7c0.2,0.2,0.3,0.4,0.5,0.6c0.8,0.3,1.5,0.8,2,1.5s0.6,1.5,0.5,2.3c0.1,0.1,0.2,0.2,0.3,0.3
				c0.5,0.3,0.9,0.6,1.2,1.1c0.5,0.7,0.6,1.6,0.4,2.4l0.1,0.2c0.4,0.6,0.6,1.4,0.5,2.2c0,0.3,0,0.7-0.1,1c-0.1,0.4-0.3,0.7-0.5,1
				c0.1,0.1,0.2,0.2,0.3,0.4c0.6,0.8,0.7,1.8,0.4,2.7L50,57.3c0,0.3,0,0.6-0.1,0.8l0,0c0,0.1,0,0.2,0.1,0.3c0.4,0.3,0.8,0.7,1.2,1.1
				c0.5,0.8,0.7,1.8,0.4,2.7c-0.2,0.8-0.8,1.4-1.5,1.7c-0.2,0.1-0.3,0.1-0.5,0.2c-0.1,0.1-0.2,0.2-0.3,0.3c0.4,0.3,0.8,0.7,1.1,1.1
				c0.6,0.8,0.7,1.7,0.5,2.7c-0.2,0.6-0.5,1.1-1,1.4c-0.2,0.2-0.4,0.3-0.6,0.4c-0.2,0.2-0.4,0.3-0.7,0.5l-0.3,0.1
				c0,0.3,0,0.6-0.1,0.9c-0.2,0.6-0.5,1-1.1,1.3c-0.2,0.1-0.3,0.3-0.5,0.3l-0.1,0.1c-0.2,0.2-0.4,0.3-0.6,0.4l-0.3,0.1
				c-0.1,0.1-0.3,0.2-0.4,0.2V74h-0.1c-0.1,0.1-0.3,0.1-0.4,0.2l-0.1,0.1c-0.1,0.1-0.3,0.1-0.4,0.2c-0.2,0.1-0.3,0.1-0.5,0.1
				c-0.2,0.1-0.5,0.1-0.7,0.2c-0.4,0.2-0.9,0.2-1.3,0.1c-0.7,0.2-1.4,0-1.9-0.5c-0.1-0.1-0.2-0.2-0.3-0.3c-0.2-0.1-0.3-0.2-0.4-0.4
				L39,73.5c-0.2-0.2-0.4-0.4-0.6-0.6c0-0.1-0.1-0.1-0.1-0.2c-0.1-0.1-0.3-0.3-0.4-0.4l-0.1-0.1l-0.3-0.3c0-0.1-0.1-0.1-0.1-0.2
				c-0.2-0.1-0.4-0.3-0.5-0.5L36.7,71l-0.1-0.2c-0.2-0.1-0.3-0.3-0.5-0.5L36,70.2c0-0.1-0.1-0.2-0.2-0.2c-1.2-0.5-2.6-1.1-4.2-1.8
				L31.3,68l-2.2-0.2c-4-0.1-6.8-0.4-8.4-1.5c-1-0.3-1.8-0.8-2.5-1.5c-0.3-0.2-0.5-0.5-0.7-0.8c-0.2-0.2-0.3-0.5-0.4-0.7
				C16.5,63,16,62.6,15.7,62c-0.1-0.2-0.2-0.4-0.3-0.5c-0.5-0.8-0.6-1.7-0.3-2.6v-0.1c0-0.2,0.1-0.4,0.1-0.6l0.1-0.2
				c-0.3-0.2-0.5-0.5-0.7-0.8c-0.6-0.8-0.7-1.8-0.4-2.8c0.2-0.6,0.5-1.1,1.1-1.5c0.2-0.3,0.4-0.6,0.7-0.8c-0.4-0.7-0.5-1.6-0.3-2.4
				c0.1-0.4,0.3-0.7,0.6-1v-0.1c0.2-0.6,0.6-1.2,1.1-1.5c0-0.3,0-0.7,0.1-1c0.2-0.6,0.6-1.2,1.2-1.5c-0.2-0.6-0.2-1.1,0-1.7
				c0.1-0.2,0.2-0.4,0.3-0.6c0.2-0.7,0.7-1.3,1.3-1.6c0.2-0.2,0.5-0.4,0.7-0.5c0.5-0.2,1-0.3,1.5-0.3c0.2-0.6,0.7-1,1.2-1.3l0,0
				c-0.1-0.5-0.1-1,0-1.5c0.2-0.7,0.7-1.3,1.4-1.5l0.2-0.1c0.2-0.5,0.6-0.9,1.1-1.1c0.4-0.2,0.9-0.3,1.4-0.3c0-0.1,0-0.2,0-0.3
				c-0.2-0.5-0.2-1.1-0.1-1.7c0.1-0.5,0.4-0.9,0.9-1.2c0.1-0.1,0.3-0.2,0.4-0.3c0.1-0.1,0.2-0.2,0.3-0.2c0.1-0.1,0.2-0.1,0.3-0.2
				l0,0c0.1-0.1,0.3-0.2,0.4-0.3l0,0c0.1-0.1,0.2-0.1,0.3-0.2l0.1-0.1l0.1-0.1l0.2-0.1l0.2-0.2c0.1-0.1,0.2-0.2,0.4-0.2l0,0
				c0.1-0.1,0.3-0.2,0.4-0.3c0.2-0.1,0.3-0.2,0.5-0.3c0.6-0.3,1.2-0.3,1.8-0.1c0.2,0.1,0.5,0.3,0.7,0.5c0.1,0.1,0.2,0.1,0.3,0.2
				s0.2,0.2,0.3,0.3c0.1,0.1,0.3,0.2,0.4,0.3L36,30l0.2,0.2l0.1,0.1c0.1,0.1,0.3,0.2,0.4,0.3c0.1,0.1,0.3,0.2,0.4,0.4
				c0.1,0.1,0.1,0.1,0.2,0.2C37.4,31.3,37.5,31.4,37.6,31.5z"/>
			<path class="st1" d="M27.8,63.6c0.6,0.7,0.8,1.8,0.5,2.7c-0.2,0.6-0.6,1.1-1.1,1.4c-0.3,0.1-0.6,0.2-0.9,0.2c0,0.4,0,0.7-0.1,1.1
				c-0.1,0.3-0.3,0.6-0.5,0.9c0,0.1-0.1,0.2-0.1,0.3c0.3,0.6,0.4,1.2,0.2,1.8c-0.1,0.4-0.4,0.8-0.8,1.1c0,0,0,0.1,0,0.2
				c-0.1,0.3-0.3,0.7-0.5,0.9c-0.1,0.2-0.2,0.3-0.4,0.5c-0.1,0.2-0.2,0.3-0.3,0.4c-0.1,0.2-0.3,0.3-0.5,0.4
				c-0.2,0.2-0.4,0.4-0.7,0.6c-0.1,0.1-0.3,0.3-0.5,0.4l0,0c-0.1,0.1-0.2,0.1-0.3,0.2l0,0c-0.1,0-0.1,0.1-0.2,0.1
				c-0.2,0.1-0.4,0.2-0.6,0.3c-0.5,0.2-1,0.3-1.5,0.1h-0.1c-0.7,0.2-1.5,0-2.1-0.6l-0.1-0.1c-0.1-0.1-0.2-0.2-0.4-0.3l-0.1-0.1
				c-0.2-0.1-0.3-0.2-0.4-0.4l-0.1-0.2l0,0c-0.1-0.1-0.2-0.2-0.3-0.3c-0.1-0.1-0.1-0.2-0.2-0.3c-0.3-0.2-0.5-0.5-0.6-0.8
				c-0.1-0.1-0.3-0.2-0.4-0.4c-0.1-0.1-0.1-0.1-0.1-0.2c-0.1-0.2-0.2-0.4-0.3-0.6L14,72.6c-0.1-0.2-0.2-0.4-0.3-0.6
				s-0.2-0.4-0.3-0.7c-0.4-0.4-0.6-0.9-0.6-1.5c-0.2-0.5-0.2-1.1-0.1-1.6c0-0.1,0.1-0.2,0.1-0.3c0-0.1-0.1-0.1-0.1-0.2
				c-0.5-0.7-0.7-1.5-0.4-2.3c0.1-0.4,0.4-0.8,0.7-1.1c0-0.3,0-0.6,0.1-0.9c0.2-0.6,0.6-1.1,1.1-1.4c0.5-0.2,1.1-0.3,1.6-0.2
				c0.2-0.1,0.3-0.3,0.5-0.4c1.1-0.6,2.5-0.2,5.3,0.8c1.2-0.1,2.4,0.1,3.4,0.7c0.8-0.4,1.8-0.4,2.6,0.2
				C27.7,63.5,27.7,63.6,27.8,63.6z"/>
		</g>
	</g>
</g>
</svg>
