<?xml version="1.0" encoding="utf-8"?>
<!-- Generator: Adobe Illustrator 24.3.0, SVG Export Plug-In . SVG Version: 6.00 Build 0)  -->
<svg version="1.1" id="Layer_1" xmlns="http://www.w3.org/2000/svg" xmlns:xlink="http://www.w3.org/1999/xlink" x="0px" y="0px"
	 viewBox="0 0 67 70.1" style="enable-background:new 0 0 67 70.1;" xml:space="preserve">
<style type="text/css">
	.st0{fill:#91BED5;}
</style>
<g id="Layer_2_1_">
	<g id="Paws">
		<g id="paths">
			<path class="st0" d="M15.4,29.9c0,0.2,0,0.4-0.1,0.6c0,0.1,0,0.1,0,0.2c0,0.2-0.1,0.4-0.2,0.6c0,0.3,0,0.5,0,0.8
				c0,0.1-0.1,0.3-0.1,0.4v0.1c-0.1,0.6-0.4,1.2-0.9,1.6c-0.2,0.2-0.4,0.4-0.7,0.6c-0.1,0.8-0.6,1.6-1.4,2c-0.1,0.1-0.2,0.1-0.4,0.2
				c0,0.2-0.1,0.5-0.2,0.7c0,0.2,0.1,0.3,0.1,0.5c0,1-0.5,1.9-1.4,2.3c-0.2,0.1-0.5,0.2-0.8,0.3c-0.2,0.4-0.6,0.8-1,1
				C8,42,7.8,42.1,7.5,42.1c-0.1,0-0.3,0-0.4,0c-0.2,0-0.4,0-0.6,0s-0.3,0-0.5,0L5.7,42c-0.2,0-0.4,0-0.5-0.1l0,0l-0.3-0.1l-0.2-0.1
				l-0.2-0.1c-0.3-0.1-0.5-0.2-0.7-0.4c-0.4-0.2-0.7-0.5-0.9-0.8c-0.1-0.2-0.2-0.5-0.2-0.8l-0.1-0.2c-0.1-0.1-0.1-0.1-0.2-0.2
				c-0.9-0.8-1.9-1.7-1.8-3c-0.1-0.2-0.1-0.5-0.2-0.8c0-0.2-0.1-0.3-0.1-0.5c0-0.1,0-0.3,0-0.4c0-0.3,0-0.5,0-0.8c0-0.2,0-0.4,0-0.5
				s0-0.1,0-0.2c0-0.2,0-0.5,0-0.7c0-0.1,0-0.1,0-0.2c0-0.2,0-0.3,0-0.5c0-0.1,0-0.1,0-0.2c0.1-0.7,0.6-1.4,1.2-1.7
				c0.3-0.2,0.6-0.2,0.9-0.3c0.2-0.2,0.5-0.4,0.7-0.6c0.3-0.2,0.6-0.3,1-0.3c0-0.3,0.1-0.6,0.3-0.8C3.5,27.3,3,26.5,3,25.6l0,0
				c0-1,0.6-1.8,1.4-2.2c0.3-0.2,0.7-0.3,1.1-0.3L5.8,23l0.3-0.1c0.2-0.3,0.5-0.6,0.8-0.8c0.4-0.3,0.9-0.4,1.4-0.3
				c0.4-0.1,0.9-0.1,1.4,0c0.3,0,0.5,0,0.8,0.1c0.1,0,0.2,0.1,0.3,0.1H11c0.2,0.1,0.4,0.1,0.6,0.3h0.1c0.3,0.1,0.6,0.2,0.8,0.4
				c0.3,0.2,0.5,0.4,0.7,0.7c0.1,0.1,0.2,0.3,0.2,0.5c0.1,0.1,0.1,0.2,0.2,0.4c0.9,0.5,1.4,1.4,1.5,2.5c0.1,0.3,0.1,0.5,0.1,0.8
				c0.1,0.3,0.1,0.7,0.1,1v0.1c0,0.2,0,0.5,0,0.7c0,0.1,0,0.1,0,0.2C15.3,29.6,15.3,29.8,15.4,29.9z"/>
			<path class="st0" d="M29.2,10.3c0,0.2,0,0.5-0.1,0.7v0.1c0,0.3-0.1,0.5-0.2,0.7c0,0.2,0,0.4,0,0.6c0,0.2-0.1,0.4-0.2,0.6
				c-0.1,0.7-0.6,1.3-1.2,1.7l-0.1,0.1C27.3,14.9,27.1,15,27,15c-0.1,0.1-0.2,0.1-0.3,0.1c-0.2,0.6-0.7,1.1-1.2,1.5
				c-0.2,0.1-0.5,0.2-0.8,0.3c0,0.1-0.1,0.2-0.1,0.2c0,0.1,0,0.1,0,0.2c0.1,1-0.5,2-1.4,2.4c-0.3,0.2-0.6,0.3-1,0.3
				c-0.2,0.3-0.4,0.5-0.7,0.6c-0.4,0.2-0.8,0.3-1.2,0.3H20c-0.1,0-0.3,0-0.4,0c-0.2,0-0.4,0-0.6,0c-0.1,0-0.3,0-0.4-0.1l-0.2-0.1
				h-0.1c-0.1,0-0.2,0-0.3-0.1c-0.1,0-0.2-0.1-0.2-0.1h-0.2c-0.1,0-0.2-0.1-0.3-0.1L17,20.1c-0.2-0.1-0.4-0.2-0.6-0.4
				c-0.4-0.2-0.7-0.5-0.9-0.8c-0.1-0.2-0.2-0.5-0.2-0.7h-0.1c-0.8-0.7-1.8-1.5-1.7-2.8l0,0c-0.1-0.2-0.1-0.5-0.1-0.8
				c0-0.1,0-0.3,0-0.4c0-0.1,0-0.2,0-0.3c0-0.2,0-0.5,0-0.7v-0.1c0-0.1,0-0.3,0-0.4c0-0.1,0-0.1,0-0.2c0,0,0,0,0-0.1s0-0.3,0-0.4
				c0-0.1,0-0.2,0.1-0.3c0-0.1,0-0.2,0-0.3s0-0.1,0-0.2v-0.1c0-0.1,0-0.1,0-0.1c0.1-0.8,0.7-1.4,1.4-1.8C15.4,8.9,16,8.9,16.5,9
				l0.1-0.1c0.4-0.2,0.8-0.3,1.2-0.3c0.1-0.2,0.2-0.4,0.3-0.5C17.4,7.6,17,6.9,16.9,6c0-1,0.5-1.8,1.4-2.3c0.4-0.2,0.8-0.3,1.3-0.3
				l0.1-0.1c0.1-0.1,0.3-0.1,0.4-0.2c0.2-0.3,0.5-0.5,0.8-0.7c0.4-0.3,1-0.4,1.5-0.3c0.4-0.1,0.9-0.1,1.3,0l0,0c0.3,0,0.5,0,0.8,0.1
				c0.1,0,0.2,0.1,0.3,0.1c0.1,0,0.2,0,0.3,0.1c0.2,0,0.4,0.1,0.5,0.2h0.1C26,2.7,26.3,2.8,26.5,3c0.4,0.2,0.7,0.5,0.9,0.8
				c0.1,0.2,0.2,0.4,0.2,0.7c1,0.5,1.6,1.5,1.6,2.6c0.1,0.3,0.1,0.6,0.1,0.9l0,0c0.1,0.3,0.1,0.7,0.1,1c0,0.1,0,0.1,0,0.2
				c0,0.2,0,0.4,0,0.6l0,0C29.2,10,29.2,10.2,29.2,10.3z"/>
			<path class="st0" d="M50,7.6c0,0.2,0,0.4-0.1,0.6c0,0.1,0,0.3,0,0.4c0,0.1-0.1,0.3-0.1,0.4c0.1,0.3,0.1,0.6,0,0.9
				c0,0.1,0,0.2-0.1,0.3c0,0.1,0,0.2,0,0.3c-0.1,0.5-0.3,0.9-0.6,1.3c-0.2,0.3-0.5,0.6-0.9,0.8v0.1c-0.1,0.9-0.6,1.7-1.5,2.1
				c-0.1,0.1-0.2,0.1-0.3,0.2c0,0.3-0.1,0.5-0.2,0.8c0,0.1,0.1,0.3,0.1,0.4c0,1-0.5,1.9-1.4,2.4c-0.2,0.1-0.3,0.2-0.5,0.2
				c-0.2,0.4-0.6,0.8-1,1C43.2,19.9,43,20,42.8,20c-0.1,0-0.3,0.1-0.4,0.1H42c-0.2,0-0.4,0-0.7,0h-0.2c-0.1,0-0.3,0-0.4,0
				c-0.2,0-0.4,0-0.5-0.1c-0.2,0-0.3,0-0.5-0.1h-0.1h-0.1h-0.1l0,0c-0.2-0.1-0.5-0.2-0.7-0.3c-0.4-0.2-0.8-0.5-1-0.9
				c-0.1-0.2-0.2-0.5-0.2-0.8L37.3,18c-0.8-0.7-1.8-1.5-1.7-2.8c-0.1-0.3-0.1-0.5-0.2-0.8c0-0.2-0.1-0.3-0.1-0.5c0-0.1,0-0.3,0-0.4
				c0-0.3,0-0.5,0-0.8c0-0.2,0-0.4,0-0.5s0-0.1,0-0.2c0-0.2,0-0.5,0-0.7v-0.1c0-0.2,0-0.3,0-0.5c0-0.1,0-0.1,0-0.2
				c0-0.1,0-0.3,0-0.4c0.1-0.7,0.6-1.4,1.2-1.8C36.9,8.1,37.3,8,37.7,8c0.2-0.1,0.3-0.2,0.5-0.3c0.2-0.1,0.5-0.2,0.8-0.3V7.3
				c0-0.4,0.1-0.8,0.3-1.1C38.5,5.7,38,4.9,38,4c0-1,0.6-1.8,1.4-2.3c0.3-0.2,0.6-0.3,1-0.3l0.3-0.2H41c0.2-0.3,0.5-0.6,0.9-0.8
				s0.9-0.3,1.4-0.3C43.5,0,43.8,0,44,0s0.5,0,0.7,0.1l0.2,0.1c0.2,0,0.4,0,0.6,0.1c0.2,0.1,0.3,0.1,0.5,0.2h0.2
				c0.3,0.1,0.5,0.2,0.8,0.4c0.2,0.2,0.5,0.4,0.6,0.6c0.1,0.1,0.1,0.2,0.2,0.3C47.9,2,48,2.3,48.2,2.5C49,3,49.5,3.8,49.7,4.8
				c0.1,0.3,0.1,0.6,0.1,0.9v0.1c0.1,0.3,0.2,0.6,0.1,0.9v0.1C49.9,7.1,50,7.4,50,7.6z"/>
			<path class="st0" d="M67,26.2c0,0.2,0,0.5-0.1,0.7V27c0,0.2-0.1,0.5-0.2,0.7c0,0.2,0,0.5,0,0.7s-0.1,0.4-0.2,0.5
				c-0.1,0.7-0.6,1.4-1.2,1.7h-0.1c-0.1,0.1-0.2,0.2-0.4,0.2L64.6,31c-0.2,0.6-0.7,1.2-1.3,1.5c-0.2,0.1-0.5,0.2-0.8,0.3
				c0,0.1-0.1,0.2-0.1,0.2v0.1c0.1,1-0.5,2-1.4,2.4l-0.3,0.1c-0.2,0.3-0.5,0.5-0.8,0.7s-0.6,0.3-1,0.3c-0.2,0.1-0.4,0.1-0.6,0.1
				h-0.4h-0.3c-0.2,0-0.4,0-0.6,0c-0.1,0-0.2,0-0.3,0s-0.3,0-0.4-0.1c-0.1,0-0.3,0-0.4-0.1l-0.2-0.1c-0.1,0-0.2,0-0.2-0.1h-0.1l0,0
				c-0.1,0-0.2-0.1-0.3-0.2c-0.2-0.1-0.4-0.2-0.6-0.3c-0.4-0.2-0.8-0.5-1-0.9c-0.1-0.2-0.2-0.4-0.2-0.6c-1-0.5-1.6-1.5-1.6-2.6l0,0
				c-0.1-0.2-0.1-0.5-0.1-0.7s0-0.3,0-0.5c0-0.1,0-0.2,0-0.3c0-0.2,0-0.5,0-0.7c0,0,0,0,0-0.1s0-0.3,0-0.4s0-0.2,0-0.3l0,0
				c0-0.2,0-0.3,0-0.5c0-0.1,0-0.2,0-0.2c0-0.1,0-0.3,0-0.4v-0.1v-0.1c0-0.1,0-0.2,0-0.3c0-0.2,0.1-0.3,0.1-0.5c0-0.1,0-0.2,0-0.4
				c0.1-0.7,0.6-1.4,1.2-1.8c0.8-0.4,1.7-0.4,2.4,0.2l0,0c0-0.3,0.1-0.6,0.3-0.9c-0.7-0.5-1.2-1.3-1.2-2.1c0-1,0.5-1.8,1.4-2.3
				c0.4-0.2,0.8-0.3,1.2-0.3l0.2-0.1l0.4-0.2c0.2-0.3,0.5-0.5,0.8-0.7c0.5-0.4,1.2-0.5,1.8-0.3c0.4-0.1,0.8-0.1,1.3,0l0.2,0.1
				c0.2,0,0.4,0,0.6,0.1c0.2,0.1,0.3,0.1,0.5,0.2h0.1c0.3,0.1,0.6,0.2,0.8,0.4l0,0c0.9,0.3,1.4,1.1,1.8,2.2c0.8,0.5,1.3,1.4,1.4,2.3
				c0,0.1,0,0.2,0,0.4c0.1,0.4,0.2,0.7,0.1,1.1v0.1c0,0.2,0,0.5,0,0.7v0.1C67,25.9,67,26,67,26.2z"/>
			<path class="st0" d="M51.1,40.3L51.1,40.3c0,0.8-0.4,1.5-1.1,1.9c-1,0.6-2.2,0.2-2.7-0.7l0,0c0-0.1-0.1-0.2-0.1-0.3
				c-0.7-0.4-1.2-1.2-1.2-2l0,0c0-0.8,0.5-1.6,1.2-2c0.8-0.4,1.8-0.3,2.4,0.3c0.2,0.1,0.4,0.3,0.6,0.5c0.5,0.3,0.9,0.8,1,1.4
				c0,0.2,0,0.3,0,0.5C51.1,40.1,51.1,40.2,51.1,40.3z M47.9,38.8L47.9,38.8z"/>
			<path class="st0" d="M57.5,55.4c0,0.2,0,0.3,0,0.5c-0.1,0.9-0.7,1.7-1.5,2.2h-0.1v0.1c0.4,0.8,0.6,1.8,0.5,2.7
				c-0.1,1-0.7,1.8-1.6,2.3c-0.1,0.1-0.3,0.2-0.5,0.2c-0.3,0.4-0.6,0.7-1,0.9c-0.6,0.4-1.4,0.5-2.1,0.3c-0.2,0.1-0.4,0.1-0.5,0.1
				c-0.3,0.6-0.8,1.1-1.3,1.5c-0.7,0.4-1.5,0.5-2.2,0.2L47,66.3l-0.2,0.1c-0.7,0.4-1.5,0.5-2.2,0.3c-0.3,0.1-0.7,0.1-1.1,0.1
				c-0.5,0.2-1.1,0.2-1.6,0c-1-0.4-1.7-1.1-2.2-2c-0.9-0.5-1.6-1.2-2.2-2.1c-0.6,0.3-1.3,0.4-2,0.2c-0.1,0-0.3-0.1-0.4-0.2
				c-0.2,0-0.4,0-0.6-0.1l-0.2-0.1c-0.2,0-0.4,0-0.6-0.1c-0.2,0.4-0.4,0.7-0.8,1c-0.2,0.3-0.4,0.6-0.7,0.8c-0.2,0.7-0.6,1.4-1.3,1.8
				c-0.4,0.2-0.8,0.3-1.2,0.3c-0.2,0-0.3,0-0.5,0c-0.2,0.3-0.5,0.5-0.8,0.7c-0.4,0.2-0.8,0.3-1.2,0.3c-0.1,0.9-0.6,1.7-1.4,2.1
				c-0.6,0.3-1.3,0.4-1.9,0.2h-0.1c-0.3,0-0.6,0-0.9-0.1c-0.2,0-0.3-0.1-0.4-0.2c-0.2,0.2-0.4,0.4-0.6,0.5c-0.5,0.3-1.2,0.4-1.8,0.2
				l-0.3-0.1c-0.1,0-0.2-0.1-0.4-0.2c-0.2-0.1-0.4-0.2-0.6-0.4c-0.3-0.2-0.6-0.4-0.8-0.8c-0.1-0.2-0.2-0.4-0.2-0.7L17.2,67l-0.3-0.2
				c-1.1-1-2.1-2-2.1-3.3c-0.2-0.3-0.3-0.7-0.3-1c-0.1-0.2-0.2-0.5-0.2-0.7c-0.1-0.4-0.1-0.7,0-1.1c0.1-0.6,0.4-1.1,0.8-1.5V59
				c0-0.4,0.1-0.8,0.4-1.2c-0.5-0.6-0.8-1.4-0.7-2.2c0.1-0.9,0.5-1.6,1.3-2.1c0.1-0.1,0.3-0.1,0.4-0.2c0-0.3,0-0.5,0-0.8
				c0-0.1,0-0.3,0.1-0.4c-0.7-0.8-1.1-1.9-1-3c0.1-0.9,0.6-1.7,1.4-2.1c0.2-0.1,0.5-0.2,0.8-0.3c0.1-0.1,0.3-0.2,0.4-0.3
				c0.3-0.2,0.6-0.3,0.9-0.3c0.3-0.4,0.8-0.7,1.3-0.9c0.1-0.2,0.1-0.3,0.2-0.5v-0.1c-0.1-0.2-0.2-0.5-0.2-0.8
				c-0.4-0.7-0.5-1.4-0.5-2.2c0.1-0.6,0.3-1.1,0.7-1.5c0.2-0.6,0.6-1.1,1.2-1.4c0.2-0.1,0.4-0.2,0.6-0.3c0-0.1,0-0.2,0-0.3
				c0.1-0.4,0.2-0.7,0.4-1.1c0-0.2,0-0.5,0-0.7c0.2-0.9,0.7-1.7,1.5-2.2c0.1-0.1,0.2-0.1,0.3-0.2c0.2-0.3,0.5-0.6,0.9-0.9
				c0.3-0.5,0.7-0.9,1.2-1.2c0.7-0.4,1.6-0.5,2.3-0.2c0.2-0.2,0.4-0.4,0.6-0.5c0.2-0.9,0.8-1.7,1.6-2.1c0.8-0.4,1.7-0.5,2.5-0.2
				c0.2,0.1,0.4,0.2,0.6,0.3c0.4,0,0.8,0,1.2,0.1c0.3,0.1,0.6,0.2,0.8,0.4c0.6-0.2,1.2-0.2,1.8,0c1.1,0.5,2.1,1.3,2.7,2.4
				c0.8,0.4,1.4,1,1.9,1.8h0.1c0.6-0.3,1.3-0.4,2-0.2c1.7,0.5,2.8,2.7,5.2,8.1c2.1,2.2,3.5,3.8,3.9,5.3c1.6,2,2.4,3.5,2.4,4.9l0,0
				C56.9,53,57.4,54.2,57.5,55.4z"/>
		</g>
	</g>
</g>
</svg>
