<?xml version="1.0" encoding="utf-8"?>
<!-- Generator: Adobe Illustrator 24.3.0, SVG Export Plug-In . SVG Version: 6.00 Build 0)  -->
<svg version="1.1" id="Layer_1" xmlns="http://www.w3.org/2000/svg" xmlns:xlink="http://www.w3.org/1999/xlink" x="0px" y="0px"
	 viewBox="0 0 63.7 75.8" style="enable-background:new 0 0 63.7 75.8;" xml:space="preserve">
<style type="text/css">
	.st0{fill:#91BED5;}
</style>
<g id="Layer_2_1_">
	<g id="Paws">
		<g id="paths">
			<path class="st0" d="M15.2,37.5c0,0.1,0,0.3,0.1,0.4l0,0c0.1,0.2,0.1,0.4,0.1,0.6c0,0.3,0,0.7-0.1,1c0.2,1-0.2,1.9-1,2.5
				c-0.1,0.1-0.2,0.2-0.4,0.3c0.4,0.5,0.6,1,0.7,1.6c0.1,0.6-0.1,1.1-0.4,1.6c-0.1,0.5-0.4,1-0.8,1.4c0,0.1,0.1,0.2,0.1,0.3
				c0.1,0.9-0.2,1.8-0.9,2.3c-0.3,0.3-0.6,0.5-1,0.6c-0.1,0.2-0.3,0.4-0.4,0.5c-0.4,0.4-1.1,0.6-1.7,0.6H9.4C9,51.5,8.5,51.7,8,51.6
				c-0.1,0-0.3,0-0.4,0c-0.2,0-0.4,0-0.5-0.1H6.7c-0.3,0-0.5-0.1-0.7-0.2c-0.3,0-0.6-0.2-0.9-0.3s-0.5-0.3-0.7-0.5
				c-0.1-0.1-0.2-0.2-0.3-0.4C4,50,3.8,49.8,3.7,49.5c-1-0.5-2.1-1.1-2.4-2.3C1.2,47,1.1,46.8,1,46.5s-0.2-0.6-0.3-0.9l0,0
				c-0.1-0.2-0.2-0.5-0.2-0.8c0,0,0,0,0-0.1c-0.1-0.2-0.2-0.5-0.2-0.8c0-0.1,0-0.3,0-0.4c0-0.1-0.1-0.3-0.1-0.4
				c-0.1-0.6,0.1-1.3,0.5-1.8C0.3,41,0.1,40.5,0,40c-0.1-0.9,0.2-1.8,0.9-2.4c0.1-0.1,0.2-0.2,0.3-0.2c-0.2-0.3-0.3-0.7-0.3-1
				c-0.1-0.8,0.2-1.6,0.8-2.2c0.3-0.3,0.7-0.5,1.1-0.6c0.1-0.3,0.3-0.5,0.6-0.7c0.3-0.3,0.7-0.5,1.1-0.6c0-0.7,0.3-1.3,0.8-1.7
				c0.4-0.4,1-0.6,1.6-0.6c0.2,0,0.3,0,0.5,0h0.3h0.1c0.3,0,0.6,0.1,0.8,0.2c1.1,0.2,1.8,1.2,3.1,2.8c1.5,1,2.8,1.8,3.1,3.1l0,0
				c0,0.1,0,0.1,0.1,0.2c0.1,0.2,0.2,0.4,0.2,0.7C15.1,37.2,15.1,37.3,15.2,37.5z"/>
			<path class="st0" d="M23.4,13.6l0.1,0.4v0.1c0,0.1,0.1,0.3,0.1,0.5l0,0c0,0.1,0.1,0.3,0.1,0.4v0.2l0,0c0,0.1,0,0.2,0,0.3
				s0,0.3,0,0.4c0,0.1,0,0.2,0,0.3c0,0.1,0,0.1,0,0.2v0.1c0.1,0.8-0.2,1.5-0.8,2c-0.2,0.2-0.4,0.4-0.7,0.5c0.1,0.2,0.1,0.3,0.1,0.5
				c0.1,0.6-0.1,1.2-0.5,1.7c-0.1,0.5-0.4,0.9-0.8,1.2c0,0.1,0,0.2,0,0.3c0.1,0.9-0.2,1.8-0.9,2.4c-0.2,0.2-0.5,0.4-0.9,0.5
				c-0.1,0.2-0.3,0.5-0.5,0.6c-0.1,0.1-0.3,0.3-0.5,0.4c-0.4,0.3-0.9,0.5-1.4,0.6c-0.4,0.2-0.8,0.3-1.2,0.2l0,0c-0.2,0-0.4,0-0.6,0
				h0h-0.4c-0.2,0-0.3,0-0.4-0.1c-0.3,0-0.5-0.1-0.8-0.2c-0.4-0.1-0.7-0.3-0.9-0.5c-0.1-0.1-0.2-0.3-0.3-0.5L12,25.9
				c-0.9-0.4-1.6-1.1-2-2c-0.1-0.2-0.2-0.4-0.3-0.7c-0.1-0.2-0.2-0.5-0.3-0.8v-0.1c-0.1-0.3-0.2-0.6-0.3-0.9
				c-0.2-0.3-0.3-0.7-0.3-1.1v-0.1c-0.1-0.2-0.2-0.4-0.2-0.6c-0.1-0.3-0.2-0.7-0.3-1c0-0.5,0.1-1,0.4-1.5c-0.5-0.4-0.8-0.9-0.9-1.5
				c-0.1-0.9,0.2-1.8,0.9-2.4C8.9,13,9,12.9,9.2,12.8l0.1-0.1c0-0.1,0-0.2-0.1-0.4c-0.1-0.8,0.2-1.6,0.8-2.2
				c0.4-0.4,1.1-0.6,1.7-0.6c0.2,0,0.4,0.1,0.6,0.1c0,0,0.1,0,0.1-0.1c0.2-0.1,0.3-0.3,0.5-0.4C13,9,13.2,8.7,13.5,8.5
				c0.3-0.3,0.6-0.4,1-0.5c0.2-0.1,0.3-0.1,0.5-0.1c0.1-0.1,0.3-0.1,0.4-0.1h0.1c0.1,0,0.2,0,0.2,0h0.2c0.2,0,0.4-0.1,0.5-0.1
				c0.2,0,0.4,0,0.5,0h0.4c0.1,0,0.2,0,0.2,0h0.1H18c1.1,0.1,1.7,0.9,2.6,2.1c1,0.4,1.8,1.3,2.2,2.3l0.1,0.2c0,0.1,0.1,0.3,0.1,0.4
				c0.1,0.2,0.2,0.4,0.2,0.6C23.3,13.4,23.3,13.5,23.4,13.6z"/>
			<path class="st0" d="M42.1,8.7c0,0.1,0,0.3,0.1,0.4c0.1,0.8-0.2,1.5-0.8,2c-0.1,0.1-0.2,0.2-0.4,0.3c0.4,0.5,0.6,1,0.7,1.7
				c0,0.4,0,0.8-0.2,1.2c0,0.7-0.3,1.3-0.7,1.8c0.1,0.2,0.2,0.5,0.2,0.7c0.1,0.9-0.2,1.8-0.9,2.4c-0.2,0.2-0.5,0.4-0.8,0.5
				c-0.1,0.2-0.3,0.5-0.5,0.7c-0.4,0.4-1.1,0.6-1.7,0.6l0,0c-0.4,0.3-1,0.5-1.5,0.5c-0.1,0-0.2,0-0.4,0s-0.4,0-0.5-0.1
				c-0.1,0-0.2,0-0.3,0c-0.2,0-0.5-0.1-0.7-0.2c-0.3-0.1-0.6-0.2-0.8-0.3c-0.4-0.2-0.8-0.5-1-0.9c-0.2-0.2-0.3-0.4-0.5-0.6
				c-1-0.5-2.1-1.1-2.4-2.3c-0.1-0.2-0.2-0.4-0.2-0.7c-0.1-0.3-0.2-0.6-0.3-0.9l0,0c-0.1-0.2-0.2-0.5-0.2-0.8v-0.1
				c-0.1-0.2-0.2-0.5-0.2-0.8c0-0.2,0-0.3,0-0.5c0-0.1,0-0.2-0.1-0.4c-0.1-0.6,0.1-1.3,0.5-1.8c-0.3-0.4-0.6-0.8-0.6-1.3
				C27.7,9,28,8.1,28.7,7.5c0.1-0.1,0.2-0.2,0.3-0.3c-0.1-0.3-0.2-0.6-0.3-0.9c0-0.9,0.3-1.7,0.9-2.3c0.3-0.3,0.8-0.5,1.2-0.6
				C30.9,3.2,31,3,31.2,2.9c0-0.6,0.3-1.3,0.8-1.7c0.2-0.2,0.4-0.3,0.6-0.4c0.1-0.1,0.3-0.2,0.5-0.2c0.1-0.1,0.3-0.1,0.4-0.2h0.1
				c0.1-0.1,0.3-0.1,0.4-0.2h0.1c0.2-0.1,0.3-0.1,0.5-0.1C34.7,0.1,34.9,0,35,0h0.2c0.1,0,0.3,0,0.4,0h0.6c0.2,0,0.5,0,0.7,0.1
				c0.3,0,0.5,0.1,0.8,0.2c0.3,0,0.6,0.1,0.9,0.3c0.6,0.1,1.1,0.5,1.3,1.1c0.1,0.2,0.2,0.4,0.2,0.6c0.1,0.2,0.2,0.4,0.2,0.5
				s0,0.1,0,0.2c0.1,0.2,0.2,0.4,0.2,0.6c0.1,0.2,0.1,0.3,0.1,0.5c0,0.1,0.1,0.2,0.1,0.3C40.9,4.6,41,4.8,41,5
				c0.1,0.2,0.2,0.5,0.2,0.8c0.1,0.2,0.1,0.4,0.2,0.5c0.1,0.2,0.1,0.3,0.2,0.5c0,0.1,0.1,0.2,0.1,0.3c0.1,0.2,0.1,0.5,0.2,0.7v0.1
				c0,0.2,0.1,0.4,0.1,0.6C42.1,8.6,42.1,8.6,42.1,8.7z"/>
			<path class="st0" d="M63.4,21.3c0,0.1,0.1,0.3,0.1,0.4c0,0.2,0,0.4,0,0.6c0.2,0.3,0.3,0.7,0.3,1c0.1,0.8-0.2,1.5-0.8,2l0,0
				c0,0.1,0,0.2,0,0.3c0,0.4,0,0.9-0.2,1.3c0,0.6-0.3,1.3-0.7,1.7c0.1,0.2,0.2,0.5,0.2,0.7c0.1,0.9-0.2,1.8-0.9,2.4
				c-0.2,0.2-0.4,0.3-0.7,0.4c-0.1,0.3-0.3,0.6-0.6,0.8c-0.4,0.4-0.9,0.6-1.4,0.6c-0.4,0.4-1,0.6-1.6,0.6H57c-0.2,0-0.4,0-0.6,0
				c-0.1,0-0.3,0-0.4,0c-0.5-0.1-0.9-0.2-1.3-0.3c-0.3-0.1-0.6-0.3-0.8-0.5c-0.1-0.1-0.2-0.3-0.3-0.4l-0.4-0.4c-0.9-0.5-2-1-2.3-2.2
				c-0.1-0.2-0.2-0.4-0.2-0.6c-0.2-0.3-0.3-0.6-0.3-0.9C50.1,28.3,50,28,50,27.7c-0.2-0.4-0.3-0.7-0.4-1.1v-0.1
				c-0.2-0.3-0.3-0.6-0.3-0.9c-0.1-0.6,0.1-1.1,0.4-1.6c0-0.1,0-0.2-0.1-0.3c-0.5-0.4-0.8-0.9-0.9-1.5c-0.1-0.9,0.2-1.8,0.9-2.4
				c0.2-0.2,0.4-0.3,0.6-0.4c0-0.1,0-0.2,0-0.3c-0.1-0.8,0.2-1.7,0.8-2.3c0.4-0.4,1-0.6,1.6-0.6c0.1-0.4,0.4-0.7,0.7-1
				s0.8-0.5,1.2-0.6c0.3-0.2,0.6-0.3,0.9-0.3c0.2-0.1,0.4-0.1,0.7-0.1h0.1c0.2,0,0.4,0,0.6,0H57h0.1l0.3,0.1c0.3,0,0.5,0.1,0.7,0.3
				c0.2,0.1,0.5,0.3,0.7,0.5l0.2,0.2c0.4,0.4,0.7,0.8,1.1,1.2c1.2,0.7,2.3,1.3,2.6,2.5c0.1,0.1,0.1,0.2,0.1,0.3
				c0,0.1,0.1,0.2,0.1,0.3c0,0,0,0,0,0.1c0.1,0.2,0.2,0.5,0.2,0.7v0.1c0.1,0.2,0.2,0.4,0.2,0.7C63.3,21.1,63.3,21.2,63.4,21.3z"/>
			<path class="st0" d="M63.4,54c0,0.2,0.1,0.4,0.1,0.5c0,0.2,0,0.5,0,0.7c0,0.6-0.1,1.3-0.5,1.8c0,0.1,0,0.2,0,0.3v0.4
				c0,0.1,0,0.2,0,0.2c0.1,1-0.3,1.9-1,2.5c-0.3,0.2-0.6,0.4-0.9,0.6v0.1c0.1,0.9-0.3,1.9-1,2.5c-0.6,0.5-1.3,0.8-2.1,0.7
				c-0.3,0-0.7-0.1-1-0.2l-0.2,0.2c-0.3,0.3-0.6,0.5-1,0.6c-0.1,0.1-0.2,0.2-0.3,0.3c-0.5,0.5-1.3,0.8-2,0.7c-0.8-0.1-1.6-0.5-2.2-1
				c-0.2,0.3-0.4,0.6-0.7,0.9c-0.2,0.2-0.4,0.3-0.7,0.4c-0.1,0.1-0.2,0.3-0.4,0.4c-0.6,0.5-1.3,0.8-2.1,0.7
				c-0.6-0.1-1.2-0.3-1.7-0.6C45.4,67,45,67.1,44.6,67c-1-0.1-1.9-0.6-2.6-1.3c0,0.1,0,0.2,0,0.2c0.1,0.9-0.3,1.7-0.9,2.3l0,0
				c-0.2,0.5-0.5,1-0.9,1.4c-0.5,0.4-1.1,0.7-1.7,0.7c-0.1,0.5-0.4,1-0.8,1.3c-0.2,0.2-0.5,0.4-0.8,0.5c-0.2,0.2-0.4,0.3-0.6,0.4
				c-0.1,0.5-0.4,1-0.8,1.4c-0.4,0.4-0.9,0.6-1.4,0.6c-0.1,0.1-0.1,0.2-0.2,0.2c-0.5,0.4-1.1,0.6-1.7,0.6l0,0
				c-0.4,0.3-0.9,0.5-1.5,0.4h-0.2c-0.2,0-0.4,0-0.6,0c-0.3,0-0.7,0-1-0.1c-0.3,0-0.6-0.1-0.8-0.2c-0.3-0.1-0.6-0.3-0.8-0.5
				c-0.1-0.1-0.2-0.2-0.3-0.4c-0.2-0.2-0.4-0.4-0.6-0.7c-1-0.5-2.1-1.2-2.4-2.3c-0.1-0.2-0.2-0.5-0.3-0.7c-0.2-0.3-0.3-0.6-0.3-0.9
				c-0.1-0.3-0.2-0.6-0.2-0.9c-0.1-0.3-0.2-0.6-0.3-0.9c0-0.1,0-0.2,0-0.3c-0.1-0.2-0.1-0.4-0.2-0.6c-0.1-0.6,0.1-1.2,0.4-1.7v-0.2
				c-0.5-0.4-0.8-1-0.9-1.7c-0.1-0.8,0.1-1.6,0.7-2.2c0-0.1,0-0.3,0.1-0.4c-0.5-0.6-0.8-1.3-0.9-2s0.2-1.5,0.7-2c0-0.1,0-0.2,0-0.3
				c-0.1-0.8,0.3-1.7,0.9-2.2c0.3-0.3,0.7-0.5,1.2-0.6c-0.3-0.4-0.5-0.9-0.5-1.5c0-0.2,0-0.4,0-0.6c-0.6-0.6-1-1.5-1.1-2.3
				c-0.1-0.5,0-1.1,0.3-1.6l0,0c-0.1-0.8,0.2-1.5,0.7-2.1v-0.1c-0.1-0.9,0.3-1.8,1-2.4c0.5-0.4,1.1-0.7,1.7-0.7v-0.1
				c-0.2-0.5-0.3-0.9-0.4-1.4c-0.1-0.9,0.3-1.9,1-2.5c0.3-0.3,0.6-0.5,1-0.6c0.1-0.1,0.1-0.3,0.2-0.4c-0.1-0.2-0.1-0.5-0.1-0.7
				c-0.1-0.9,0.3-1.8,1-2.5c0.4-0.3,0.8-0.6,1.3-0.7c0.2-0.5,0.5-1,0.9-1.4c0.6-0.5,1.4-0.8,2.2-0.7c0.4,0,0.8,0.1,1.1,0.3l0.2,0.1
				c0.5-0.3,1.2-0.5,1.8-0.4c1.1,0.2,2.2,0.7,3,1.5c0.3,0.2,0.5,0.3,0.8,0.5c0.4-0.2,0.9-0.3,1.4-0.2c1.3,0.1,2.7,1.1,4.5,3.3
				c1.2,0.2,2.4,1.2,4.2,3.4c0.6,0,1.2,0.2,1.6,0.6c0.2,0.3,0.4,0.6,0.5,0.9l0,0c1.2,0.2,2.8,0.5,3.3,2c0.1,0.3,0.1,0.6,0.1,0.9
				c1.2,0.3,2.1,1.2,2.5,2.4V47c0.1,0.3,0.1,0.6,0,1c1.7,1.1,2.8,2.2,3.1,3.6C62.6,52.1,63.1,53,63.4,54z"/>
		</g>
	</g>
</g>
</svg>
